G04*
G04 #@! TF.GenerationSoftware,Altium Limited,Altium Designer,20.2.4 (192)*
G04*
G04 Layer_Color=32896*
%FSLAX44Y44*%
%MOMM*%
G71*
G04*
G04 #@! TF.SameCoordinates,BE2EEFCD-C29F-4362-AD25-489BCFFAE24D*
G04*
G04*
G04 #@! TF.FilePolarity,Positive*
G04*
G01*
G75*
%ADD13C,0.1000*%
%ADD90C,0.0500*%
D13*
X1672000Y381000D02*
X1764000D01*
X1672000D02*
Y474000D01*
X1764000D01*
Y381000D02*
Y474000D01*
D90*
X1972150Y505200D02*
G03*
X1972150Y505200I-15000J0D01*
G01*
X1946750D02*
G03*
X1946750Y505200I-15000J0D01*
G01*
X1921350D02*
G03*
X1921350Y505200I-15000J0D01*
G01*
X1895950D02*
G03*
X1895950Y505200I-15000J0D01*
G01*
X1870550D02*
G03*
X1870550Y505200I-15000J0D01*
G01*
X1845150D02*
G03*
X1845150Y505200I-15000J0D01*
G01*
X1819750D02*
G03*
X1819750Y505200I-15000J0D01*
G01*
X1794350D02*
G03*
X1794350Y505200I-15000J0D01*
G01*
X1768950D02*
G03*
X1768950Y505200I-15000J0D01*
G01*
X1743550D02*
G03*
X1743550Y505200I-15000J0D01*
G01*
X1718150D02*
G03*
X1718150Y505200I-15000J0D01*
G01*
X1692750D02*
G03*
X1692750Y505200I-15000J0D01*
G01*
X1667350D02*
G03*
X1667350Y505200I-15000J0D01*
G01*
X1641950D02*
G03*
X1641950Y505200I-15000J0D01*
G01*
X1616550D02*
G03*
X1616550Y505200I-15000J0D01*
G01*
X1972150Y530600D02*
G03*
X1972150Y530600I-15000J0D01*
G01*
X1946750D02*
G03*
X1946750Y530600I-15000J0D01*
G01*
X1921350D02*
G03*
X1921350Y530600I-15000J0D01*
G01*
X1895950D02*
G03*
X1895950Y530600I-15000J0D01*
G01*
X1870550D02*
G03*
X1870550Y530600I-15000J0D01*
G01*
X1845150D02*
G03*
X1845150Y530600I-15000J0D01*
G01*
X1819750D02*
G03*
X1819750Y530600I-15000J0D01*
G01*
X1794350D02*
G03*
X1794350Y530600I-15000J0D01*
G01*
X1768950D02*
G03*
X1768950Y530600I-15000J0D01*
G01*
X1743550D02*
G03*
X1743550Y530600I-15000J0D01*
G01*
X1718150D02*
G03*
X1718150Y530600I-15000J0D01*
G01*
X1692750D02*
G03*
X1692750Y530600I-15000J0D01*
G01*
X1667350D02*
G03*
X1667350Y530600I-15000J0D01*
G01*
X1641950D02*
G03*
X1641950Y530600I-15000J0D01*
G01*
X1616550D02*
G03*
X1616550Y530600I-15000J0D01*
G01*
X1972150Y556000D02*
G03*
X1972150Y556000I-15000J0D01*
G01*
X1946750D02*
G03*
X1946750Y556000I-15000J0D01*
G01*
X1921350D02*
G03*
X1921350Y556000I-15000J0D01*
G01*
X1895950D02*
G03*
X1895950Y556000I-15000J0D01*
G01*
X1870550D02*
G03*
X1870550Y556000I-15000J0D01*
G01*
X1845150D02*
G03*
X1845150Y556000I-15000J0D01*
G01*
X1819750D02*
G03*
X1819750Y556000I-15000J0D01*
G01*
X1794350D02*
G03*
X1794350Y556000I-15000J0D01*
G01*
X1768950D02*
G03*
X1768950Y556000I-15000J0D01*
G01*
X1743550D02*
G03*
X1743550Y556000I-15000J0D01*
G01*
X1718150D02*
G03*
X1718150Y556000I-15000J0D01*
G01*
X1692750D02*
G03*
X1692750Y556000I-15000J0D01*
G01*
X1667350D02*
G03*
X1667350Y556000I-15000J0D01*
G01*
X1641950D02*
G03*
X1641950Y556000I-15000J0D01*
G01*
X1616550D02*
G03*
X1616550Y556000I-15000J0D01*
G01*
X1972150Y581400D02*
G03*
X1972150Y581400I-15000J0D01*
G01*
X1946750D02*
G03*
X1946750Y581400I-15000J0D01*
G01*
X1921350D02*
G03*
X1921350Y581400I-15000J0D01*
G01*
X1895950D02*
G03*
X1895950Y581400I-15000J0D01*
G01*
X1870550D02*
G03*
X1870550Y581400I-15000J0D01*
G01*
X1845150D02*
G03*
X1845150Y581400I-15000J0D01*
G01*
X1819750D02*
G03*
X1819750Y581400I-15000J0D01*
G01*
X1794350D02*
G03*
X1794350Y581400I-15000J0D01*
G01*
X1768950D02*
G03*
X1768950Y581400I-15000J0D01*
G01*
X1743550D02*
G03*
X1743550Y581400I-15000J0D01*
G01*
X1718150D02*
G03*
X1718150Y581400I-15000J0D01*
G01*
X1692750D02*
G03*
X1692750Y581400I-15000J0D01*
G01*
X1667350D02*
G03*
X1667350Y581400I-15000J0D01*
G01*
X1641950D02*
G03*
X1641950Y581400I-15000J0D01*
G01*
X1616550D02*
G03*
X1616550Y581400I-15000J0D01*
G01*
X1972150Y606800D02*
G03*
X1972150Y606800I-15000J0D01*
G01*
X1946750D02*
G03*
X1946750Y606800I-15000J0D01*
G01*
X1921350D02*
G03*
X1921350Y606800I-15000J0D01*
G01*
X1895950D02*
G03*
X1895950Y606800I-15000J0D01*
G01*
X1870550D02*
G03*
X1870550Y606800I-15000J0D01*
G01*
X1845150D02*
G03*
X1845150Y606800I-15000J0D01*
G01*
X1819750D02*
G03*
X1819750Y606800I-15000J0D01*
G01*
X1794350D02*
G03*
X1794350Y606800I-15000J0D01*
G01*
X1768950D02*
G03*
X1768950Y606800I-15000J0D01*
G01*
X1743550D02*
G03*
X1743550Y606800I-15000J0D01*
G01*
X1718150D02*
G03*
X1718150Y606800I-15000J0D01*
G01*
X1692750D02*
G03*
X1692750Y606800I-15000J0D01*
G01*
X1667350D02*
G03*
X1667350Y606800I-15000J0D01*
G01*
X1641950D02*
G03*
X1641950Y606800I-15000J0D01*
G01*
X1616550D02*
G03*
X1616550Y606800I-15000J0D01*
G01*
X1972150Y632200D02*
G03*
X1972150Y632200I-15000J0D01*
G01*
X1946750D02*
G03*
X1946750Y632200I-15000J0D01*
G01*
X1921350D02*
G03*
X1921350Y632200I-15000J0D01*
G01*
X1895950D02*
G03*
X1895950Y632200I-15000J0D01*
G01*
X1870550D02*
G03*
X1870550Y632200I-15000J0D01*
G01*
X1845150D02*
G03*
X1845150Y632200I-15000J0D01*
G01*
X1819750D02*
G03*
X1819750Y632200I-15000J0D01*
G01*
X1794350D02*
G03*
X1794350Y632200I-15000J0D01*
G01*
X1768950D02*
G03*
X1768950Y632200I-15000J0D01*
G01*
X1743550D02*
G03*
X1743550Y632200I-15000J0D01*
G01*
X1718150D02*
G03*
X1718150Y632200I-15000J0D01*
G01*
X1692750D02*
G03*
X1692750Y632200I-15000J0D01*
G01*
X1667350D02*
G03*
X1667350Y632200I-15000J0D01*
G01*
X1641950D02*
G03*
X1641950Y632200I-15000J0D01*
G01*
X1616550D02*
G03*
X1616550Y632200I-15000J0D01*
G01*
X1972150Y657600D02*
G03*
X1972150Y657600I-15000J0D01*
G01*
X1946750D02*
G03*
X1946750Y657600I-15000J0D01*
G01*
X1921350D02*
G03*
X1921350Y657600I-15000J0D01*
G01*
X1895950D02*
G03*
X1895950Y657600I-15000J0D01*
G01*
X1870550D02*
G03*
X1870550Y657600I-15000J0D01*
G01*
X1845150D02*
G03*
X1845150Y657600I-15000J0D01*
G01*
X1819750D02*
G03*
X1819750Y657600I-15000J0D01*
G01*
X1794350D02*
G03*
X1794350Y657600I-15000J0D01*
G01*
X1768950D02*
G03*
X1768950Y657600I-15000J0D01*
G01*
X1743550D02*
G03*
X1743550Y657600I-15000J0D01*
G01*
X1718150D02*
G03*
X1718150Y657600I-15000J0D01*
G01*
X1692750D02*
G03*
X1692750Y657600I-15000J0D01*
G01*
X1667350D02*
G03*
X1667350Y657600I-15000J0D01*
G01*
X1641950D02*
G03*
X1641950Y657600I-15000J0D01*
G01*
X1616550D02*
G03*
X1616550Y657600I-15000J0D01*
G01*
X1972150Y683000D02*
G03*
X1972150Y683000I-15000J0D01*
G01*
X1946750D02*
G03*
X1946750Y683000I-15000J0D01*
G01*
X1921350D02*
G03*
X1921350Y683000I-15000J0D01*
G01*
X1895950D02*
G03*
X1895950Y683000I-15000J0D01*
G01*
X1870550D02*
G03*
X1870550Y683000I-15000J0D01*
G01*
X1845150D02*
G03*
X1845150Y683000I-15000J0D01*
G01*
X1819750D02*
G03*
X1819750Y683000I-15000J0D01*
G01*
X1794350D02*
G03*
X1794350Y683000I-15000J0D01*
G01*
X1768950D02*
G03*
X1768950Y683000I-15000J0D01*
G01*
X1743550D02*
G03*
X1743550Y683000I-15000J0D01*
G01*
X1718150D02*
G03*
X1718150Y683000I-15000J0D01*
G01*
X1692750D02*
G03*
X1692750Y683000I-15000J0D01*
G01*
X1667350D02*
G03*
X1667350Y683000I-15000J0D01*
G01*
X1641950D02*
G03*
X1641950Y683000I-15000J0D01*
G01*
X1616550D02*
G03*
X1616550Y683000I-15000J0D01*
G01*
X1972150Y708400D02*
G03*
X1972150Y708400I-15000J0D01*
G01*
X1946750D02*
G03*
X1946750Y708400I-15000J0D01*
G01*
X1921350D02*
G03*
X1921350Y708400I-15000J0D01*
G01*
X1895950D02*
G03*
X1895950Y708400I-15000J0D01*
G01*
X1870550D02*
G03*
X1870550Y708400I-15000J0D01*
G01*
X1845150D02*
G03*
X1845150Y708400I-15000J0D01*
G01*
X1819750D02*
G03*
X1819750Y708400I-15000J0D01*
G01*
X1794350D02*
G03*
X1794350Y708400I-15000J0D01*
G01*
X1768950D02*
G03*
X1768950Y708400I-15000J0D01*
G01*
X1743550D02*
G03*
X1743550Y708400I-15000J0D01*
G01*
X1718150D02*
G03*
X1718150Y708400I-15000J0D01*
G01*
X1692750D02*
G03*
X1692750Y708400I-15000J0D01*
G01*
X1667350D02*
G03*
X1667350Y708400I-15000J0D01*
G01*
X1641950D02*
G03*
X1641950Y708400I-15000J0D01*
G01*
X1616550D02*
G03*
X1616550Y708400I-15000J0D01*
G01*
X1972150Y733800D02*
G03*
X1972150Y733800I-15000J0D01*
G01*
X1946750D02*
G03*
X1946750Y733800I-15000J0D01*
G01*
X1921350D02*
G03*
X1921350Y733800I-15000J0D01*
G01*
X1895950D02*
G03*
X1895950Y733800I-15000J0D01*
G01*
X1870550D02*
G03*
X1870550Y733800I-15000J0D01*
G01*
X1845150D02*
G03*
X1845150Y733800I-15000J0D01*
G01*
X1819750D02*
G03*
X1819750Y733800I-15000J0D01*
G01*
X1794350D02*
G03*
X1794350Y733800I-15000J0D01*
G01*
X1768950D02*
G03*
X1768950Y733800I-15000J0D01*
G01*
X1743550D02*
G03*
X1743550Y733800I-15000J0D01*
G01*
X1718150D02*
G03*
X1718150Y733800I-15000J0D01*
G01*
X1692750D02*
G03*
X1692750Y733800I-15000J0D01*
G01*
X1667350D02*
G03*
X1667350Y733800I-15000J0D01*
G01*
X1641950D02*
G03*
X1641950Y733800I-15000J0D01*
G01*
X1616550D02*
G03*
X1616550Y733800I-15000J0D01*
G01*
X1761350Y741200D02*
Y777200D01*
X1847850D01*
Y741200D02*
Y777200D01*
X1761350Y741200D02*
X1847850D01*
X1466800Y893000D02*
Y929000D01*
X1629800D01*
Y893000D02*
Y929000D01*
X1466800Y893000D02*
X1629800D01*
X1781200Y412500D02*
X1814800D01*
X1781200Y393500D02*
Y412500D01*
Y393500D02*
X1814800D01*
Y412500D01*
X1781200Y448500D02*
Y467500D01*
X1814800D01*
Y448500D02*
Y467500D01*
X1781200Y448500D02*
X1814800D01*
X1378000Y569000D02*
X1452000D01*
X1378000D02*
Y623000D01*
X1452000D01*
Y569000D02*
Y623000D01*
X1378000Y473000D02*
X1452000D01*
X1378000D02*
Y527000D01*
X1452000D01*
Y473000D02*
Y527000D01*
X1169000Y681000D02*
X1243000D01*
Y627000D02*
Y681000D01*
X1169000Y627000D02*
X1243000D01*
X1169000D02*
Y681000D01*
Y581000D02*
X1243000D01*
Y527000D02*
Y581000D01*
X1169000Y527000D02*
X1243000D01*
X1169000D02*
Y581000D01*
X1835700Y904500D02*
X1869300D01*
Y923500D01*
X1835700D02*
X1869300D01*
X1835700Y904500D02*
Y923500D01*
X1906200Y845500D02*
X1939800D01*
Y864500D01*
X1906200D02*
X1939800D01*
X1906200Y845500D02*
Y864500D01*
X1368200Y418500D02*
Y437500D01*
X1401800D01*
Y418500D02*
Y437500D01*
X1368200Y418500D02*
X1401800D01*
X1498800Y91500D02*
Y110500D01*
X1465200Y91500D02*
X1498800D01*
X1465200D02*
Y110500D01*
X1498800D01*
X1610500Y827200D02*
Y860800D01*
Y827200D02*
X1629500D01*
Y860800D01*
X1610500D02*
X1629500D01*
X1608500Y827200D02*
Y860800D01*
X1589500D02*
X1608500D01*
X1589500Y827200D02*
Y860800D01*
Y827200D02*
X1608500D01*
X1501500Y653200D02*
Y686800D01*
X1482500D02*
X1501500D01*
X1482500Y653200D02*
Y686800D01*
Y653200D02*
X1501500D01*
X1522500D02*
Y686800D01*
X1503500D02*
X1522500D01*
X1503500Y653200D02*
Y686800D01*
Y653200D02*
X1522500D01*
X1533200Y891500D02*
X1566800D01*
X1533200Y872500D02*
Y891500D01*
Y872500D02*
X1566800D01*
Y891500D01*
X1497200D02*
X1530800D01*
X1497200Y872500D02*
Y891500D01*
Y872500D02*
X1530800D01*
Y891500D01*
X1568500Y250200D02*
Y283800D01*
X1549500D02*
X1568500D01*
X1549500Y250200D02*
Y283800D01*
Y250200D02*
X1568500D01*
X1568500Y827200D02*
Y860800D01*
Y827200D02*
X1587500D01*
Y860800D01*
X1568500D02*
X1587500D01*
X1566500Y827200D02*
Y860800D01*
X1547500D02*
X1566500D01*
X1547500Y827200D02*
Y860800D01*
Y827200D02*
X1566500D01*
X1564500Y653200D02*
Y686800D01*
X1545500D02*
X1564500D01*
X1545500Y653200D02*
Y686800D01*
Y653200D02*
X1564500D01*
X1543500D02*
Y686800D01*
X1524500D02*
X1543500D01*
X1524500Y653200D02*
Y686800D01*
Y653200D02*
X1543500D01*
X1754000Y154000D02*
X1790000D01*
Y92500D02*
Y154000D01*
X1754000Y92500D02*
X1790000D01*
X1754000D02*
Y154000D01*
Y254000D02*
X1790000D01*
Y192500D02*
Y254000D01*
X1754000Y192500D02*
X1790000D01*
X1754000D02*
Y254000D01*
X1791000Y154000D02*
X1827000D01*
Y67500D02*
Y154000D01*
X1791000Y67500D02*
X1827000D01*
X1791000D02*
Y154000D01*
Y254000D02*
X1827000D01*
Y167500D02*
Y254000D01*
X1791000Y167500D02*
X1827000D01*
X1791000D02*
Y254000D01*
X1563000Y376000D02*
X1599000D01*
X1563000D02*
Y462500D01*
X1599000D01*
Y376000D02*
Y462500D01*
X1828500Y862500D02*
X1901500D01*
Y817500D02*
Y862500D01*
X1828500Y817500D02*
X1901500D01*
X1828500D02*
Y862500D01*
X1953000Y813500D02*
X2005000D01*
X1953000Y973500D02*
X2005000D01*
X1953000Y813500D02*
Y973500D01*
X2005000Y813500D02*
Y973500D01*
X1265500Y848800D02*
X1284500D01*
Y815200D02*
Y848800D01*
X1265500Y815200D02*
X1284500D01*
X1265500D02*
Y848800D01*
X1287200Y831500D02*
X1320800D01*
X1287200Y812500D02*
Y831500D01*
Y812500D02*
X1320800D01*
Y831500D01*
X1395200Y46500D02*
X1428800D01*
Y65500D01*
X1395200D02*
X1428800D01*
X1395200Y46500D02*
Y65500D01*
X1665800Y271500D02*
Y290500D01*
X1632200Y271500D02*
X1665800D01*
X1632200D02*
Y290500D01*
X1665800D01*
X1439200Y194500D02*
Y213500D01*
X1472800D01*
Y194500D02*
Y213500D01*
X1439200Y194500D02*
X1472800D01*
X1526200Y46500D02*
Y65500D01*
X1559800D01*
Y46500D02*
Y65500D01*
X1526200Y46500D02*
X1559800D01*
X1714575Y271500D02*
Y290500D01*
X1748175D01*
Y271500D02*
Y290500D01*
X1714575Y271500D02*
X1748175D01*
X1526200Y155500D02*
X1559800D01*
X1526200Y136500D02*
Y155500D01*
Y136500D02*
X1559800D01*
Y155500D01*
X1395200Y91500D02*
X1428800D01*
Y110500D01*
X1395200D02*
X1428800D01*
X1395200Y91500D02*
Y110500D01*
Y69000D02*
X1428800D01*
Y88000D01*
X1395200D02*
X1428800D01*
X1395200Y69000D02*
Y88000D01*
Y114000D02*
X1428800D01*
Y133000D01*
X1395200D02*
X1428800D01*
X1395200Y114000D02*
Y133000D01*
X1526200Y91500D02*
Y110500D01*
X1559800D01*
Y91500D02*
Y110500D01*
X1526200Y91500D02*
X1559800D01*
X1526200Y69000D02*
Y88000D01*
X1559800D01*
Y69000D02*
Y88000D01*
X1526200Y69000D02*
X1559800D01*
X1526200Y114000D02*
Y133000D01*
X1559800D01*
Y114000D02*
Y133000D01*
X1526200Y114000D02*
X1559800D01*
X1952200Y250500D02*
X1985800D01*
X1952200Y231500D02*
Y250500D01*
Y231500D02*
X1985800D01*
Y250500D01*
X1903500Y871000D02*
X1951500D01*
X1903500D02*
Y959000D01*
X1951500D01*
Y871000D02*
Y959000D01*
X1830500Y926000D02*
Y959000D01*
X1879500D01*
Y926000D02*
Y959000D01*
X1830500Y926000D02*
X1879500D01*
X1438200Y437500D02*
X1471800D01*
X1438200Y418500D02*
Y437500D01*
Y418500D02*
X1471800D01*
Y437500D01*
Y443500D02*
Y462500D01*
X1438200Y443500D02*
X1471800D01*
X1438200D02*
Y462500D01*
X1471800D01*
X1174200Y602500D02*
X1207800D01*
X1174200Y583500D02*
Y602500D01*
Y583500D02*
X1207800D01*
Y602500D01*
Y505500D02*
Y524500D01*
X1174200Y505500D02*
X1207800D01*
X1174200D02*
Y524500D01*
X1207800D01*
X1174200Y702500D02*
X1207800D01*
X1174200Y683500D02*
Y702500D01*
Y683500D02*
X1207800D01*
Y702500D01*
Y605500D02*
Y624500D01*
X1174200Y605500D02*
X1207800D01*
X1174200D02*
Y624500D01*
X1207800D01*
X1242000Y683500D02*
Y702500D01*
X1210000D02*
X1242000D01*
X1210000Y683500D02*
Y702500D01*
Y683500D02*
X1242000D01*
X1297825Y924500D02*
Y943500D01*
X1331425D01*
Y924500D02*
Y943500D01*
X1297825Y924500D02*
X1331425D01*
X1298200Y964500D02*
X1331800D01*
X1298200Y945500D02*
Y964500D01*
Y945500D02*
X1331800D01*
Y964500D01*
X1781200Y439500D02*
X1814800D01*
X1781200Y420500D02*
Y439500D01*
Y420500D02*
X1814800D01*
Y439500D01*
X1261200Y924500D02*
X1294800D01*
Y943500D01*
X1261200D02*
X1294800D01*
X1261200Y924500D02*
Y943500D01*
Y945500D02*
Y964500D01*
X1294800D01*
Y945500D02*
Y964500D01*
X1261200Y945500D02*
X1294800D01*
X1602200Y435500D02*
Y454500D01*
X1635800D01*
Y435500D02*
Y454500D01*
X1602200Y435500D02*
X1635800D01*
X1602200Y455500D02*
X1635800D01*
Y474500D01*
X1602200D02*
X1635800D01*
X1602200Y455500D02*
Y474500D01*
X1172800Y583500D02*
Y602500D01*
X1139200Y583500D02*
X1172800D01*
X1139200D02*
Y602500D01*
X1172800D01*
X1139200Y524500D02*
X1172800D01*
X1139200Y505500D02*
Y524500D01*
Y505500D02*
X1172800D01*
Y524500D01*
X1403200Y418500D02*
X1436800D01*
Y437500D01*
X1403200D02*
X1436800D01*
X1403200Y418500D02*
Y437500D01*
Y443500D02*
Y462500D01*
X1436800D01*
Y443500D02*
Y462500D01*
X1403200Y443500D02*
X1436800D01*
X1368200D02*
X1401800D01*
Y462500D01*
X1368200D02*
X1401800D01*
X1368200Y443500D02*
Y462500D01*
X1298200Y882500D02*
X1331800D01*
Y901500D01*
X1298200D02*
X1331800D01*
X1298200Y882500D02*
Y901500D01*
X1331800Y903500D02*
Y922500D01*
X1298200Y903500D02*
X1331800D01*
X1298200D02*
Y922500D01*
X1331800D01*
X1261200Y882500D02*
X1294800D01*
Y901500D01*
X1261200D02*
X1294800D01*
X1261200Y882500D02*
Y901500D01*
Y903500D02*
Y922500D01*
X1294800D01*
Y903500D02*
Y922500D01*
X1261200Y903500D02*
X1294800D01*
X1859825Y420500D02*
Y439500D01*
X1893425D01*
Y420500D02*
Y439500D01*
X1859825Y420500D02*
X1893425D01*
X1602200Y350500D02*
X1635800D01*
Y369500D01*
X1602200D02*
X1635800D01*
X1602200Y350500D02*
Y369500D01*
Y370500D02*
Y389500D01*
X1635800D01*
Y370500D02*
Y389500D01*
X1602200Y370500D02*
X1635800D01*
X1207800Y705500D02*
Y724500D01*
X1174200Y705500D02*
X1207800D01*
X1174200D02*
Y724500D01*
X1207800D01*
X1172800Y605500D02*
Y624500D01*
X1139200Y605500D02*
X1172800D01*
X1139200D02*
Y624500D01*
X1172800D01*
X1403200Y368500D02*
Y387500D01*
X1436800D01*
Y368500D02*
Y387500D01*
X1403200Y368500D02*
X1436800D01*
X1403200Y393500D02*
Y412500D01*
X1436800D01*
Y393500D02*
Y412500D01*
X1403200Y393500D02*
X1436800D01*
X1368200Y368500D02*
X1401800D01*
Y387500D01*
X1368200D02*
X1401800D01*
X1368200Y368500D02*
Y387500D01*
Y393500D02*
X1401800D01*
Y412500D01*
X1368200D02*
X1401800D01*
X1368200Y393500D02*
Y412500D01*
X1632200Y251500D02*
Y270500D01*
X1665800D01*
Y251500D02*
Y270500D01*
X1632200Y251500D02*
X1665800D01*
X1588500Y250200D02*
Y283800D01*
X1569500D02*
X1588500D01*
X1569500Y250200D02*
Y283800D01*
Y250200D02*
X1588500D01*
X1498800Y46500D02*
Y65500D01*
X1465200Y46500D02*
X1498800D01*
X1465200D02*
Y65500D01*
X1498800D01*
X1700800Y271500D02*
Y290500D01*
X1667200Y271500D02*
X1700800D01*
X1667200D02*
Y290500D01*
X1700800D01*
X1439200Y192500D02*
X1472800D01*
X1439200Y173500D02*
Y192500D01*
Y173500D02*
X1472800D01*
Y192500D01*
X1498800Y136500D02*
Y155500D01*
X1465200Y136500D02*
X1498800D01*
X1465200D02*
Y155500D01*
X1498800D01*
X1430200Y69000D02*
X1463800D01*
Y88000D01*
X1430200D02*
X1463800D01*
X1430200Y69000D02*
Y88000D01*
Y114000D02*
Y133000D01*
X1463800D01*
Y114000D02*
Y133000D01*
X1430200Y114000D02*
X1463800D01*
X1711500Y203200D02*
Y236800D01*
Y203200D02*
X1730500D01*
Y236800D01*
X1711500D02*
X1730500D01*
X1465200Y88000D02*
X1498800D01*
X1465200Y69000D02*
Y88000D01*
Y69000D02*
X1498800D01*
Y88000D01*
X1465200Y133000D02*
X1498800D01*
X1465200Y114000D02*
Y133000D01*
Y114000D02*
X1498800D01*
Y133000D01*
X1751500Y203200D02*
Y236800D01*
X1732500D02*
X1751500D01*
X1732500Y203200D02*
Y236800D01*
Y203200D02*
X1751500D01*
Y103200D02*
Y136800D01*
X1732500D02*
X1751500D01*
X1732500Y103200D02*
Y136800D01*
Y103200D02*
X1751500D01*
X1623000Y76500D02*
Y181500D01*
X1697000Y76500D02*
Y181500D01*
X1623000D02*
X1697000D01*
X1623000Y76500D02*
X1697000D01*
X1210000Y583500D02*
X1242000D01*
X1210000D02*
Y602500D01*
X1242000D01*
Y583500D02*
Y602500D01*
Y505500D02*
Y524500D01*
X1210000D02*
X1242000D01*
X1210000Y505500D02*
Y524500D01*
Y505500D02*
X1242000D01*
X1378000Y528500D02*
X1410000D01*
X1378000D02*
Y547500D01*
X1410000D01*
Y528500D02*
Y547500D01*
X1420000Y528500D02*
X1452000D01*
X1420000D02*
Y547500D01*
X1452000D01*
Y528500D02*
Y547500D01*
X1873500Y338200D02*
Y371800D01*
Y338200D02*
X1892500D01*
Y371800D01*
X1873500D02*
X1892500D01*
X1378000Y548500D02*
X1410000D01*
X1378000D02*
Y567500D01*
X1410000D01*
Y548500D02*
Y567500D01*
X1916200Y231500D02*
X1949800D01*
Y250500D01*
X1916200D02*
X1949800D01*
X1916200Y231500D02*
Y250500D01*
X1740750Y359500D02*
Y378500D01*
X1777750D01*
Y359500D02*
Y378500D01*
X1740750Y359500D02*
X1777750D01*
X1873500Y287800D02*
X1892500D01*
Y254200D02*
Y287800D01*
X1873500Y254200D02*
X1892500D01*
X1873500D02*
Y287800D01*
X1852500D02*
X1871500D01*
Y254200D02*
Y287800D01*
X1852500Y254200D02*
X1871500D01*
X1852500D02*
Y287800D01*
X1471800Y368500D02*
Y387500D01*
X1438200Y368500D02*
X1471800D01*
X1438200D02*
Y387500D01*
X1471800D01*
X1438200Y412500D02*
X1471800D01*
X1438200Y393500D02*
Y412500D01*
Y393500D02*
X1471800D01*
Y412500D01*
X1210000Y605500D02*
X1242000D01*
X1210000D02*
Y624500D01*
X1242000D01*
Y605500D02*
Y624500D01*
X1903000Y270500D02*
X1935000D01*
X1903000D02*
Y289500D01*
X1935000D01*
Y270500D02*
Y289500D01*
X1874800Y192500D02*
Y211500D01*
X1841200Y192500D02*
X1874800D01*
X1841200D02*
Y211500D01*
X1874800D01*
Y109500D02*
Y128500D01*
X1841200Y109500D02*
X1874800D01*
X1841200D02*
Y128500D01*
X1874800D01*
X1672200Y359500D02*
Y378500D01*
X1705800D01*
Y359500D02*
Y378500D01*
X1672200Y359500D02*
X1705800D01*
X1706575Y378500D02*
X1740175D01*
X1706575Y359500D02*
Y378500D01*
Y359500D02*
X1740175D01*
Y378500D01*
X1871500Y338200D02*
Y371800D01*
X1852500D02*
X1871500D01*
X1852500Y338200D02*
Y371800D01*
Y338200D02*
X1871500D01*
X1485700Y489000D02*
X1560300D01*
X1485700Y435000D02*
X1560300D01*
X1485700D02*
Y489000D01*
X1560300Y435000D02*
Y489000D01*
Y350000D02*
Y404000D01*
X1485700Y350000D02*
Y404000D01*
Y350000D02*
X1560300D01*
X1485700Y404000D02*
X1560300D01*
X1830000Y900000D02*
X1900000D01*
Y865000D02*
Y900000D01*
X1830000Y865000D02*
X1900000D01*
X1830000D02*
Y900000D01*
X1823200Y846000D02*
Y959000D01*
X1656800D02*
X1823200D01*
X1656800Y846000D02*
Y959000D01*
Y846000D02*
X1823200D01*
X1283800Y710700D02*
Y868100D01*
Y710700D02*
X1492000D01*
X1283800Y868100D02*
X1492000D01*
Y710700D02*
Y868100D01*
X1486200Y405500D02*
X1519800D01*
Y424500D01*
X1486200D02*
X1519800D01*
X1486200Y405500D02*
Y424500D01*
X1554800Y405500D02*
Y424500D01*
X1521200Y405500D02*
X1554800D01*
X1521200D02*
Y424500D01*
X1554800D01*
X1486200Y490500D02*
X1519800D01*
Y509500D01*
X1486200D02*
X1519800D01*
X1486200Y490500D02*
Y509500D01*
X1554800Y490500D02*
Y509500D01*
X1521200Y490500D02*
X1554800D01*
X1521200D02*
Y509500D01*
X1554800D01*
X1420000Y548500D02*
X1452000D01*
X1420000D02*
Y567500D01*
X1452000D01*
Y548500D02*
Y567500D01*
X1914000Y119500D02*
X2022000D01*
Y226500D01*
X1914000D02*
X2022000D01*
X1914000Y119500D02*
Y226500D01*
X2005000Y850000D02*
X2105000D01*
Y960000D01*
X2005000D02*
X2105000D01*
X2005000Y850000D02*
Y960000D01*
X2000550Y665000D02*
Y777000D01*
X1964550D02*
X2000550D01*
X1964550Y665000D02*
Y777000D01*
Y665000D02*
X2000550D01*
X1548500Y250000D02*
Y284000D01*
X1513500Y250000D02*
X1548500D01*
X1513500D02*
Y284000D01*
X1548500D01*
X1441500D02*
X1476500D01*
X1441500Y250000D02*
Y284000D01*
Y250000D02*
X1476500D01*
Y284000D01*
X1512500Y250000D02*
Y284000D01*
X1477500Y250000D02*
X1512500D01*
X1477500D02*
Y284000D01*
X1512500D01*
X2000550Y538000D02*
Y675500D01*
X1964550D02*
X2000550D01*
X1964550Y538000D02*
Y675500D01*
Y538000D02*
X2000550D01*
X1837550Y741200D02*
Y777200D01*
X1975050D01*
Y741200D02*
Y777200D01*
X1837550Y741200D02*
X1975050D01*
X1549500Y175500D02*
Y214500D01*
X1490500Y175500D02*
X1549500D01*
X1490500D02*
Y214500D01*
X1549500D01*
X1900500Y450500D02*
Y489500D01*
X1959500D01*
Y450500D02*
Y489500D01*
X1900500Y450500D02*
X1959500D01*
X1664000Y204500D02*
X1696000D01*
Y185500D02*
Y204500D01*
X1664000Y185500D02*
X1696000D01*
X1664000D02*
Y204500D01*
M02*
