G04*
G04 #@! TF.GenerationSoftware,Altium Limited,Altium Designer,20.2.4 (192)*
G04*
G04 Layer_Color=128*
%FSLAX44Y44*%
%MOMM*%
G71*
G04*
G04 #@! TF.SameCoordinates,BE2EEFCD-C29F-4362-AD25-489BCFFAE24D*
G04*
G04*
G04 #@! TF.FilePolarity,Positive*
G04*
G01*
G75*
%ADD91C,0.0508*%
D91*
X1406000Y650000D02*
X1418000D01*
X1412000Y644000D02*
Y656000D01*
X1395000Y204000D02*
X1407000D01*
X1401000Y198000D02*
Y210000D01*
X1395000Y249000D02*
X1407000D01*
X1401000Y243000D02*
Y255000D01*
X1198000Y138000D02*
X1212000D01*
X1205000Y131000D02*
Y145000D01*
X1198000Y168000D02*
X1212000D01*
X1205000Y161000D02*
Y175000D01*
X1223000Y153000D02*
X1237000D01*
X1230000Y146000D02*
Y160000D01*
X1223000Y183000D02*
X1237000D01*
X1230000Y176000D02*
Y190000D01*
X1253000Y153000D02*
X1267000D01*
X1260000Y146000D02*
Y160000D01*
X1253000Y183000D02*
X1267000D01*
X1260000Y176000D02*
Y190000D01*
X1278000Y138000D02*
X1292000D01*
X1285000Y131000D02*
Y145000D01*
X1278000Y168000D02*
X1292000D01*
X1285000Y161000D02*
Y175000D01*
X1198000Y378000D02*
X1212000D01*
X1205000Y371000D02*
Y385000D01*
X1198000Y348000D02*
X1212000D01*
X1205000Y341000D02*
Y355000D01*
X1198000Y318000D02*
X1212000D01*
X1205000Y311000D02*
Y325000D01*
X1198000Y288000D02*
X1212000D01*
X1205000Y281000D02*
Y295000D01*
X1198000Y258000D02*
X1212000D01*
X1205000Y251000D02*
Y265000D01*
X1198000Y228000D02*
X1212000D01*
X1205000Y221000D02*
Y235000D01*
X1198000Y198000D02*
X1212000D01*
X1205000Y191000D02*
Y205000D01*
X1223000Y363000D02*
X1237000D01*
X1230000Y356000D02*
Y370000D01*
X1223000Y333000D02*
X1237000D01*
X1230000Y326000D02*
Y340000D01*
X1223000Y303000D02*
X1237000D01*
X1230000Y296000D02*
Y310000D01*
X1223000Y273000D02*
X1237000D01*
X1230000Y266000D02*
Y280000D01*
X1223000Y243000D02*
X1237000D01*
X1230000Y236000D02*
Y250000D01*
X1223000Y213000D02*
X1237000D01*
X1230000Y206000D02*
Y220000D01*
X1253000Y213000D02*
X1267000D01*
X1260000Y206000D02*
Y220000D01*
X1253000Y243000D02*
X1267000D01*
X1260000Y236000D02*
Y250000D01*
X1253000Y273000D02*
X1267000D01*
X1260000Y266000D02*
Y280000D01*
X1253000Y303000D02*
X1267000D01*
X1260000Y296000D02*
Y310000D01*
X1253000Y333000D02*
X1267000D01*
X1260000Y326000D02*
Y340000D01*
X1253000Y363000D02*
X1267000D01*
X1260000Y356000D02*
Y370000D01*
X1278000Y198000D02*
X1292000D01*
X1285000Y191000D02*
Y205000D01*
X1278000Y228000D02*
X1292000D01*
X1285000Y221000D02*
Y235000D01*
X1278000Y258000D02*
X1292000D01*
X1285000Y251000D02*
Y265000D01*
X1278000Y288000D02*
X1292000D01*
X1285000Y281000D02*
Y295000D01*
X1278000Y318000D02*
X1292000D01*
X1285000Y311000D02*
Y325000D01*
X1278000Y348000D02*
X1292000D01*
X1285000Y341000D02*
Y355000D01*
X1278000Y378000D02*
X1292000D01*
X1285000Y371000D02*
Y385000D01*
X1952150Y505200D02*
X1962150D01*
X1957150Y500200D02*
Y510200D01*
X1926750Y505200D02*
X1936750D01*
X1931750Y500200D02*
Y510200D01*
X1901350Y505200D02*
X1911350D01*
X1906350Y500200D02*
Y510200D01*
X1875950Y505200D02*
X1885950D01*
X1880950Y500200D02*
Y510200D01*
X1850550Y505200D02*
X1860550D01*
X1855550Y500200D02*
Y510200D01*
X1825150Y505200D02*
X1835150D01*
X1830150Y500200D02*
Y510200D01*
X1799750Y505200D02*
X1809750D01*
X1804750Y500200D02*
Y510200D01*
X1774350Y505200D02*
X1784350D01*
X1779350Y500200D02*
Y510200D01*
X1748950Y505200D02*
X1758950D01*
X1753950Y500200D02*
Y510200D01*
X1723550Y505200D02*
X1733550D01*
X1728550Y500200D02*
Y510200D01*
X1698150Y505200D02*
X1708150D01*
X1703150Y500200D02*
Y510200D01*
X1672750Y505200D02*
X1682750D01*
X1677750Y500200D02*
Y510200D01*
X1647350Y505200D02*
X1657350D01*
X1652350Y500200D02*
Y510200D01*
X1621950Y505200D02*
X1631950D01*
X1626950Y500200D02*
Y510200D01*
X1596550Y505200D02*
X1606550D01*
X1601550Y500200D02*
Y510200D01*
X1952150Y530600D02*
X1962150D01*
X1957150Y525600D02*
Y535600D01*
X1926750Y530600D02*
X1936750D01*
X1931750Y525600D02*
Y535600D01*
X1901350Y530600D02*
X1911350D01*
X1906350Y525600D02*
Y535600D01*
X1875950Y530600D02*
X1885950D01*
X1880950Y525600D02*
Y535600D01*
X1850550Y530600D02*
X1860550D01*
X1855550Y525600D02*
Y535600D01*
X1825150Y530600D02*
X1835150D01*
X1830150Y525600D02*
Y535600D01*
X1799750Y530600D02*
X1809750D01*
X1804750Y525600D02*
Y535600D01*
X1774350Y530600D02*
X1784350D01*
X1779350Y525600D02*
Y535600D01*
X1748950Y530600D02*
X1758950D01*
X1753950Y525600D02*
Y535600D01*
X1723550Y530600D02*
X1733550D01*
X1728550Y525600D02*
Y535600D01*
X1698150Y530600D02*
X1708150D01*
X1703150Y525600D02*
Y535600D01*
X1672750Y530600D02*
X1682750D01*
X1677750Y525600D02*
Y535600D01*
X1647350Y530600D02*
X1657350D01*
X1652350Y525600D02*
Y535600D01*
X1621950Y530600D02*
X1631950D01*
X1626950Y525600D02*
Y535600D01*
X1596550Y530600D02*
X1606550D01*
X1601550Y525600D02*
Y535600D01*
X1952150Y556000D02*
X1962150D01*
X1957150Y551000D02*
Y561000D01*
X1926750Y556000D02*
X1936750D01*
X1931750Y551000D02*
Y561000D01*
X1901350Y556000D02*
X1911350D01*
X1906350Y551000D02*
Y561000D01*
X1875950Y556000D02*
X1885950D01*
X1880950Y551000D02*
Y561000D01*
X1850550Y556000D02*
X1860550D01*
X1855550Y551000D02*
Y561000D01*
X1825150Y556000D02*
X1835150D01*
X1830150Y551000D02*
Y561000D01*
X1799750Y556000D02*
X1809750D01*
X1804750Y551000D02*
Y561000D01*
X1774350Y556000D02*
X1784350D01*
X1779350Y551000D02*
Y561000D01*
X1748950Y556000D02*
X1758950D01*
X1753950Y551000D02*
Y561000D01*
X1723550Y556000D02*
X1733550D01*
X1728550Y551000D02*
Y561000D01*
X1698150Y556000D02*
X1708150D01*
X1703150Y551000D02*
Y561000D01*
X1672750Y556000D02*
X1682750D01*
X1677750Y551000D02*
Y561000D01*
X1647350Y556000D02*
X1657350D01*
X1652350Y551000D02*
Y561000D01*
X1621950Y556000D02*
X1631950D01*
X1626950Y551000D02*
Y561000D01*
X1596550Y556000D02*
X1606550D01*
X1601550Y551000D02*
Y561000D01*
X1952150Y581400D02*
X1962150D01*
X1957150Y576400D02*
Y586400D01*
X1926750Y581400D02*
X1936750D01*
X1931750Y576400D02*
Y586400D01*
X1901350Y581400D02*
X1911350D01*
X1906350Y576400D02*
Y586400D01*
X1875950Y581400D02*
X1885950D01*
X1880950Y576400D02*
Y586400D01*
X1850550Y581400D02*
X1860550D01*
X1855550Y576400D02*
Y586400D01*
X1825150Y581400D02*
X1835150D01*
X1830150Y576400D02*
Y586400D01*
X1799750Y581400D02*
X1809750D01*
X1804750Y576400D02*
Y586400D01*
X1774350Y581400D02*
X1784350D01*
X1779350Y576400D02*
Y586400D01*
X1748950Y581400D02*
X1758950D01*
X1753950Y576400D02*
Y586400D01*
X1723550Y581400D02*
X1733550D01*
X1728550Y576400D02*
Y586400D01*
X1698150Y581400D02*
X1708150D01*
X1703150Y576400D02*
Y586400D01*
X1672750Y581400D02*
X1682750D01*
X1677750Y576400D02*
Y586400D01*
X1647350Y581400D02*
X1657350D01*
X1652350Y576400D02*
Y586400D01*
X1621950Y581400D02*
X1631950D01*
X1626950Y576400D02*
Y586400D01*
X1596550Y581400D02*
X1606550D01*
X1601550Y576400D02*
Y586400D01*
X1952150Y606800D02*
X1962150D01*
X1957150Y601800D02*
Y611800D01*
X1926750Y606800D02*
X1936750D01*
X1931750Y601800D02*
Y611800D01*
X1901350Y606800D02*
X1911350D01*
X1906350Y601800D02*
Y611800D01*
X1875950Y606800D02*
X1885950D01*
X1880950Y601800D02*
Y611800D01*
X1850550Y606800D02*
X1860550D01*
X1855550Y601800D02*
Y611800D01*
X1825150Y606800D02*
X1835150D01*
X1830150Y601800D02*
Y611800D01*
X1799750Y606800D02*
X1809750D01*
X1804750Y601800D02*
Y611800D01*
X1774350Y606800D02*
X1784350D01*
X1779350Y601800D02*
Y611800D01*
X1748950Y606800D02*
X1758950D01*
X1753950Y601800D02*
Y611800D01*
X1723550Y606800D02*
X1733550D01*
X1728550Y601800D02*
Y611800D01*
X1698150Y606800D02*
X1708150D01*
X1703150Y601800D02*
Y611800D01*
X1672750Y606800D02*
X1682750D01*
X1677750Y601800D02*
Y611800D01*
X1647350Y606800D02*
X1657350D01*
X1652350Y601800D02*
Y611800D01*
X1621950Y606800D02*
X1631950D01*
X1626950Y601800D02*
Y611800D01*
X1596550Y606800D02*
X1606550D01*
X1601550Y601800D02*
Y611800D01*
X1952150Y632200D02*
X1962150D01*
X1957150Y627200D02*
Y637200D01*
X1926750Y632200D02*
X1936750D01*
X1931750Y627200D02*
Y637200D01*
X1901350Y632200D02*
X1911350D01*
X1906350Y627200D02*
Y637200D01*
X1875950Y632200D02*
X1885950D01*
X1880950Y627200D02*
Y637200D01*
X1850550Y632200D02*
X1860550D01*
X1855550Y627200D02*
Y637200D01*
X1825150Y632200D02*
X1835150D01*
X1830150Y627200D02*
Y637200D01*
X1799750Y632200D02*
X1809750D01*
X1804750Y627200D02*
Y637200D01*
X1774350Y632200D02*
X1784350D01*
X1779350Y627200D02*
Y637200D01*
X1748950Y632200D02*
X1758950D01*
X1753950Y627200D02*
Y637200D01*
X1723550Y632200D02*
X1733550D01*
X1728550Y627200D02*
Y637200D01*
X1698150Y632200D02*
X1708150D01*
X1703150Y627200D02*
Y637200D01*
X1672750Y632200D02*
X1682750D01*
X1677750Y627200D02*
Y637200D01*
X1647350Y632200D02*
X1657350D01*
X1652350Y627200D02*
Y637200D01*
X1621950Y632200D02*
X1631950D01*
X1626950Y627200D02*
Y637200D01*
X1596550Y632200D02*
X1606550D01*
X1601550Y627200D02*
Y637200D01*
X1952150Y657600D02*
X1962150D01*
X1957150Y652600D02*
Y662600D01*
X1926750Y657600D02*
X1936750D01*
X1931750Y652600D02*
Y662600D01*
X1901350Y657600D02*
X1911350D01*
X1906350Y652600D02*
Y662600D01*
X1875950Y657600D02*
X1885950D01*
X1880950Y652600D02*
Y662600D01*
X1850550Y657600D02*
X1860550D01*
X1855550Y652600D02*
Y662600D01*
X1825150Y657600D02*
X1835150D01*
X1830150Y652600D02*
Y662600D01*
X1799750Y657600D02*
X1809750D01*
X1804750Y652600D02*
Y662600D01*
X1774350Y657600D02*
X1784350D01*
X1779350Y652600D02*
Y662600D01*
X1748950Y657600D02*
X1758950D01*
X1753950Y652600D02*
Y662600D01*
X1723550Y657600D02*
X1733550D01*
X1728550Y652600D02*
Y662600D01*
X1698150Y657600D02*
X1708150D01*
X1703150Y652600D02*
Y662600D01*
X1672750Y657600D02*
X1682750D01*
X1677750Y652600D02*
Y662600D01*
X1647350Y657600D02*
X1657350D01*
X1652350Y652600D02*
Y662600D01*
X1621950Y657600D02*
X1631950D01*
X1626950Y652600D02*
Y662600D01*
X1596550Y657600D02*
X1606550D01*
X1601550Y652600D02*
Y662600D01*
X1952150Y683000D02*
X1962150D01*
X1957150Y678000D02*
Y688000D01*
X1926750Y683000D02*
X1936750D01*
X1931750Y678000D02*
Y688000D01*
X1901350Y683000D02*
X1911350D01*
X1906350Y678000D02*
Y688000D01*
X1875950Y683000D02*
X1885950D01*
X1880950Y678000D02*
Y688000D01*
X1850550Y683000D02*
X1860550D01*
X1855550Y678000D02*
Y688000D01*
X1825150Y683000D02*
X1835150D01*
X1830150Y678000D02*
Y688000D01*
X1799750Y683000D02*
X1809750D01*
X1804750Y678000D02*
Y688000D01*
X1774350Y683000D02*
X1784350D01*
X1779350Y678000D02*
Y688000D01*
X1748950Y683000D02*
X1758950D01*
X1753950Y678000D02*
Y688000D01*
X1723550Y683000D02*
X1733550D01*
X1728550Y678000D02*
Y688000D01*
X1698150Y683000D02*
X1708150D01*
X1703150Y678000D02*
Y688000D01*
X1672750Y683000D02*
X1682750D01*
X1677750Y678000D02*
Y688000D01*
X1647350Y683000D02*
X1657350D01*
X1652350Y678000D02*
Y688000D01*
X1621950Y683000D02*
X1631950D01*
X1626950Y678000D02*
Y688000D01*
X1596550Y683000D02*
X1606550D01*
X1601550Y678000D02*
Y688000D01*
X1952150Y708400D02*
X1962150D01*
X1957150Y703400D02*
Y713400D01*
X1926750Y708400D02*
X1936750D01*
X1931750Y703400D02*
Y713400D01*
X1901350Y708400D02*
X1911350D01*
X1906350Y703400D02*
Y713400D01*
X1875950Y708400D02*
X1885950D01*
X1880950Y703400D02*
Y713400D01*
X1850550Y708400D02*
X1860550D01*
X1855550Y703400D02*
Y713400D01*
X1825150Y708400D02*
X1835150D01*
X1830150Y703400D02*
Y713400D01*
X1799750Y708400D02*
X1809750D01*
X1804750Y703400D02*
Y713400D01*
X1774350Y708400D02*
X1784350D01*
X1779350Y703400D02*
Y713400D01*
X1748950Y708400D02*
X1758950D01*
X1753950Y703400D02*
Y713400D01*
X1723550Y708400D02*
X1733550D01*
X1728550Y703400D02*
Y713400D01*
X1698150Y708400D02*
X1708150D01*
X1703150Y703400D02*
Y713400D01*
X1672750Y708400D02*
X1682750D01*
X1677750Y703400D02*
Y713400D01*
X1647350Y708400D02*
X1657350D01*
X1652350Y703400D02*
Y713400D01*
X1621950Y708400D02*
X1631950D01*
X1626950Y703400D02*
Y713400D01*
X1596550Y708400D02*
X1606550D01*
X1601550Y703400D02*
Y713400D01*
X1952150Y733800D02*
X1962150D01*
X1957150Y728800D02*
Y738800D01*
X1926750Y733800D02*
X1936750D01*
X1931750Y728800D02*
Y738800D01*
X1901350Y733800D02*
X1911350D01*
X1906350Y728800D02*
Y738800D01*
X1875950Y733800D02*
X1885950D01*
X1880950Y728800D02*
Y738800D01*
X1850550Y733800D02*
X1860550D01*
X1855550Y728800D02*
Y738800D01*
X1825150Y733800D02*
X1835150D01*
X1830150Y728800D02*
Y738800D01*
X1799750Y733800D02*
X1809750D01*
X1804750Y728800D02*
Y738800D01*
X1774350Y733800D02*
X1784350D01*
X1779350Y728800D02*
Y738800D01*
X1748950Y733800D02*
X1758950D01*
X1753950Y728800D02*
Y738800D01*
X1723550Y733800D02*
X1733550D01*
X1728550Y728800D02*
Y738800D01*
X1698150Y733800D02*
X1708150D01*
X1703150Y728800D02*
Y738800D01*
X1672750Y733800D02*
X1682750D01*
X1677750Y728800D02*
Y738800D01*
X1647350Y733800D02*
X1657350D01*
X1652350Y728800D02*
Y738800D01*
X1621950Y733800D02*
X1631950D01*
X1626950Y728800D02*
Y738800D01*
X1596550Y733800D02*
X1606550D01*
X1601550Y728800D02*
Y738800D01*
X1825150Y759200D02*
X1835150D01*
X1830150Y754200D02*
Y764200D01*
X1799750Y759200D02*
X1809750D01*
X1804750Y754200D02*
Y764200D01*
X1774350Y759200D02*
X1784350D01*
X1779350Y754200D02*
Y764200D01*
X1606800Y911000D02*
X1616800D01*
X1611800Y906000D02*
Y916000D01*
X1581400Y911000D02*
X1591400D01*
X1586400Y906000D02*
Y916000D01*
X1556000Y911000D02*
X1566000D01*
X1561000Y906000D02*
Y916000D01*
X1530600Y911000D02*
X1540600D01*
X1535600Y906000D02*
Y916000D01*
X1505200Y911000D02*
X1515200D01*
X1510200Y906000D02*
Y916000D01*
X1479800Y911000D02*
X1489800D01*
X1484800Y906000D02*
Y916000D01*
X1767000Y110600D02*
X1777000D01*
X1772000Y105600D02*
Y115600D01*
X1767000Y136000D02*
X1777000D01*
X1772000Y131000D02*
Y141000D01*
X1767000Y210600D02*
X1777000D01*
X1772000Y205600D02*
Y215600D01*
X1767000Y236000D02*
X1777000D01*
X1772000Y231000D02*
Y241000D01*
X1804000Y85200D02*
X1814000D01*
X1809000Y80200D02*
Y90200D01*
X1804000Y110600D02*
X1814000D01*
X1809000Y105600D02*
Y115600D01*
X1804000Y136000D02*
X1814000D01*
X1809000Y131000D02*
Y141000D01*
X1804000Y185200D02*
X1814000D01*
X1809000Y180200D02*
Y190200D01*
X1804000Y210600D02*
X1814000D01*
X1809000Y205600D02*
Y215600D01*
X1804000Y236000D02*
X1814000D01*
X1809000Y231000D02*
Y241000D01*
X1576000Y444800D02*
X1586000D01*
X1581000Y439800D02*
Y449800D01*
X1576000Y419400D02*
X1586000D01*
X1581000Y414400D02*
Y424400D01*
X1576000Y394000D02*
X1586000D01*
X1581000Y389000D02*
Y399000D01*
X1254000Y754430D02*
X1262400D01*
X1258200Y750230D02*
Y758630D01*
X1254000Y779830D02*
X1262400D01*
X1258200Y775630D02*
Y784030D01*
X1254000Y805230D02*
X1262400D01*
X1258200Y801030D02*
Y809430D01*
X1114500Y933430D02*
X1155500D01*
X1135000Y912930D02*
Y953930D01*
X1985000Y931000D02*
X1993000D01*
X1989000Y927000D02*
Y935000D01*
X1965000Y856000D02*
X1973000D01*
X1969000Y852000D02*
Y860000D01*
X1601920Y316400D02*
X1612080D01*
X1607000Y311320D02*
Y321480D01*
X1551120Y316400D02*
X1561280D01*
X1556200Y311320D02*
Y321480D01*
X1525720Y316400D02*
X1535880D01*
X1530800Y311320D02*
Y321480D01*
X1500320Y316400D02*
X1510480D01*
X1505400Y311320D02*
Y321480D01*
X1474920Y316400D02*
X1485080D01*
X1480000Y311320D02*
Y321480D01*
X1449520Y316400D02*
X1459680D01*
X1454600Y311320D02*
Y321480D01*
X1424120Y316400D02*
X1434280D01*
X1429200Y311320D02*
Y321480D01*
X1398720Y316400D02*
X1408880D01*
X1403800Y311320D02*
Y321480D01*
X1957520Y799000D02*
X1967680D01*
X1962600Y793920D02*
Y804080D01*
X1932120Y799000D02*
X1942280D01*
X1937200Y793920D02*
Y804080D01*
X1906720Y799000D02*
X1916880D01*
X1911800Y793920D02*
Y804080D01*
X1881320Y799000D02*
X1891480D01*
X1886400Y793920D02*
Y804080D01*
X1855920Y799000D02*
X1866080D01*
X1861000Y793920D02*
Y804080D01*
X1830520Y799000D02*
X1840680D01*
X1835600Y793920D02*
Y804080D01*
X1805120Y799000D02*
X1815280D01*
X1810200Y793920D02*
Y804080D01*
X1779720Y799000D02*
X1789880D01*
X1784800Y793920D02*
Y804080D01*
X1728920Y799000D02*
X1739080D01*
X1734000Y793920D02*
Y804080D01*
X1703520Y799000D02*
X1713680D01*
X1708600Y793920D02*
Y804080D01*
X1678120Y799000D02*
X1688280D01*
X1683200Y793920D02*
Y804080D01*
X1652720Y799000D02*
X1662880D01*
X1657800Y793920D02*
Y804080D01*
X1627320Y799000D02*
X1637480D01*
X1632400Y793920D02*
Y804080D01*
X1601920Y799000D02*
X1612080D01*
X1607000Y793920D02*
Y804080D01*
X1576520Y799000D02*
X1586680D01*
X1581600Y793920D02*
Y804080D01*
X1551120Y799000D02*
X1561280D01*
X1556200Y793920D02*
Y804080D01*
X1358080Y799000D02*
X1368240D01*
X1363160Y793920D02*
Y804080D01*
X1510480Y799000D02*
X1520640D01*
X1515560Y793920D02*
Y804080D01*
X1485080Y799000D02*
X1495240D01*
X1490160Y793920D02*
Y804080D01*
X1459680Y799000D02*
X1469840D01*
X1464760Y793920D02*
Y804080D01*
X1281880Y799000D02*
X1292040D01*
X1286960Y793920D02*
Y804080D01*
X1307280Y799000D02*
X1317440D01*
X1312360Y793920D02*
Y804080D01*
X1332680Y799000D02*
X1342840D01*
X1337760Y793920D02*
Y804080D01*
X1383480Y799000D02*
X1393640D01*
X1388560Y793920D02*
Y804080D01*
X1408880Y799000D02*
X1419040D01*
X1413960Y793920D02*
Y804080D01*
X1434280Y799000D02*
X1444440D01*
X1439360Y793920D02*
Y804080D01*
X1373320Y316400D02*
X1383480D01*
X1378400Y311320D02*
Y321480D01*
X1627320Y316400D02*
X1637480D01*
X1632400Y311320D02*
Y321480D01*
X1652720Y316400D02*
X1662880D01*
X1657800Y311320D02*
Y321480D01*
X1678120Y316400D02*
X1688280D01*
X1683200Y311320D02*
Y321480D01*
X1703520Y316400D02*
X1713680D01*
X1708600Y311320D02*
Y321480D01*
X1728920Y316400D02*
X1739080D01*
X1734000Y311320D02*
Y321480D01*
X1754320Y316400D02*
X1764480D01*
X1759400Y311320D02*
Y321480D01*
X1779720Y316400D02*
X1789880D01*
X1784800Y311320D02*
Y321480D01*
X1830520Y316400D02*
X1840680D01*
X1835600Y311320D02*
Y321480D01*
X1855920Y316400D02*
X1866080D01*
X1861000Y311320D02*
Y321480D01*
X1881320Y316400D02*
X1891480D01*
X1886400Y311320D02*
Y321480D01*
X1906720Y316400D02*
X1916880D01*
X1911800Y311320D02*
Y321480D01*
X1932120Y316400D02*
X1942280D01*
X1937200Y311320D02*
Y321480D01*
X1957520Y316400D02*
X1967680D01*
X1962600Y311320D02*
Y321480D01*
X1982920Y316400D02*
X1993080D01*
X1988000Y311320D02*
Y321480D01*
X2008320Y316400D02*
X2018480D01*
X2013400Y311320D02*
Y321480D01*
X2033720Y799000D02*
X2043880D01*
X2038800Y793920D02*
Y804080D01*
X2059120Y799000D02*
X2069280D01*
X2064200Y793920D02*
Y804080D01*
X2033720Y773600D02*
X2043880D01*
X2038800Y768520D02*
Y778680D01*
X2059120Y773600D02*
X2069280D01*
X2064200Y768520D02*
Y778680D01*
X2033720Y748200D02*
X2043880D01*
X2038800Y743120D02*
Y753280D01*
X2059120Y748200D02*
X2069280D01*
X2064200Y743120D02*
Y753280D01*
X2033720Y722800D02*
X2043880D01*
X2038800Y717720D02*
Y727880D01*
X2059120Y722800D02*
X2069280D01*
X2064200Y717720D02*
Y727880D01*
X2033720Y697400D02*
X2043880D01*
X2038800Y692320D02*
Y702480D01*
X2059120Y697400D02*
X2069280D01*
X2064200Y692320D02*
Y702480D01*
X2033720Y672000D02*
X2043880D01*
X2038800Y666920D02*
Y677080D01*
X2059120Y672000D02*
X2069280D01*
X2064200Y666920D02*
Y677080D01*
X2033720Y646600D02*
X2043880D01*
X2038800Y641520D02*
Y651680D01*
X2059120Y646600D02*
X2069280D01*
X2064200Y641520D02*
Y651680D01*
X2033720Y621200D02*
X2043880D01*
X2038800Y616120D02*
Y626280D01*
X2059120Y621200D02*
X2069280D01*
X2064200Y616120D02*
Y626280D01*
X2033720Y595800D02*
X2043880D01*
X2038800Y590720D02*
Y600880D01*
X2059120Y595800D02*
X2069280D01*
X2064200Y590720D02*
Y600880D01*
X2033720Y570400D02*
X2043880D01*
X2038800Y565320D02*
Y575480D01*
X2059120Y570400D02*
X2069280D01*
X2064200Y565320D02*
Y575480D01*
X2033720Y545000D02*
X2043880D01*
X2038800Y539920D02*
Y550080D01*
X2059120Y545000D02*
X2069280D01*
X2064200Y539920D02*
Y550080D01*
X2033720Y519600D02*
X2043880D01*
X2038800Y514520D02*
Y524680D01*
X2059120Y519600D02*
X2069280D01*
X2064200Y514520D02*
Y524680D01*
X2033720Y494200D02*
X2043880D01*
X2038800Y489120D02*
Y499280D01*
X2059120Y494200D02*
X2069280D01*
X2064200Y489120D02*
Y499280D01*
X2033720Y468800D02*
X2043880D01*
X2038800Y463720D02*
Y473880D01*
X2059120Y468800D02*
X2069280D01*
X2064200Y463720D02*
Y473880D01*
X2033720Y443400D02*
X2043880D01*
X2038800Y438320D02*
Y448480D01*
X2059120Y443400D02*
X2069280D01*
X2064200Y438320D02*
Y448480D01*
X2033720Y418000D02*
X2043880D01*
X2038800Y412920D02*
Y423080D01*
X2059120Y418000D02*
X2069280D01*
X2064200Y412920D02*
Y423080D01*
X2033720Y392600D02*
X2043880D01*
X2038800Y387520D02*
Y397680D01*
X2059120Y392600D02*
X2069280D01*
X2064200Y387520D02*
Y397680D01*
X2033720Y367200D02*
X2043880D01*
X2038800Y362120D02*
Y372280D01*
X2059120Y367200D02*
X2069280D01*
X2064200Y362120D02*
Y372280D01*
X1728750Y430000D02*
X1737250D01*
X1733000Y425750D02*
Y434250D01*
X1698750Y430000D02*
X1707250D01*
X1703000Y425750D02*
Y434250D01*
X1295000Y726000D02*
X1303000D01*
X1299000Y722000D02*
Y730000D01*
X1472800Y853000D02*
X1480800D01*
X1476800Y849000D02*
Y857000D01*
X1320400Y726000D02*
X1328400D01*
X1324400Y722000D02*
Y730000D01*
X1447400Y853000D02*
X1455400D01*
X1451400Y849000D02*
Y857000D01*
X1345800Y726000D02*
X1353800D01*
X1349800Y722000D02*
Y730000D01*
X1422000Y853000D02*
X1430000D01*
X1426000Y849000D02*
Y857000D01*
X1371200Y726000D02*
X1379200D01*
X1375200Y722000D02*
Y730000D01*
X1396600Y853000D02*
X1404600D01*
X1400600Y849000D02*
Y857000D01*
X1396600Y726000D02*
X1404600D01*
X1400600Y722000D02*
Y730000D01*
X1371200Y853000D02*
X1379200D01*
X1375200Y849000D02*
Y857000D01*
X1422000Y726000D02*
X1430000D01*
X1426000Y722000D02*
Y730000D01*
X1345800Y853000D02*
X1353800D01*
X1349800Y849000D02*
Y857000D01*
X1447400Y726000D02*
X1455400D01*
X1451400Y722000D02*
Y730000D01*
X1320400Y853000D02*
X1328400D01*
X1324400Y849000D02*
Y857000D01*
X1472800Y726000D02*
X1480800D01*
X1476800Y722000D02*
Y730000D01*
X1295000Y853000D02*
X1303000D01*
X1299000Y849000D02*
Y857000D01*
X1926000Y135000D02*
X1934000D01*
X1930000Y131000D02*
Y139000D01*
X2002200Y211200D02*
X2010200D01*
X2006200Y207200D02*
Y215200D01*
X1951400Y135000D02*
X1959400D01*
X1955400Y131000D02*
Y139000D01*
X1976800Y211200D02*
X1984800D01*
X1980800Y207200D02*
Y215200D01*
X1976800Y135000D02*
X1984800D01*
X1980800Y131000D02*
Y139000D01*
X1951400Y211200D02*
X1959400D01*
X1955400Y207200D02*
Y215200D01*
X2002200Y135000D02*
X2010200D01*
X2006200Y131000D02*
Y139000D01*
X1926000Y211200D02*
X1934000D01*
X1930000Y207200D02*
Y215200D01*
X2043500Y880000D02*
X2056500D01*
X2050000Y873500D02*
Y886500D01*
X2043500Y930000D02*
X2056500D01*
X2050000Y923500D02*
Y936500D01*
X1977550Y683000D02*
X1987550D01*
X1982550Y678000D02*
Y688000D01*
X1977550Y708400D02*
X1987550D01*
X1982550Y703400D02*
Y713400D01*
X1977550Y733800D02*
X1987550D01*
X1982550Y728800D02*
Y738800D01*
X1977550Y759200D02*
X1987550D01*
X1982550Y754200D02*
Y764200D01*
X1977550Y556000D02*
X1987550D01*
X1982550Y551000D02*
Y561000D01*
X1977550Y581400D02*
X1987550D01*
X1982550Y576400D02*
Y586400D01*
X1977550Y606800D02*
X1987550D01*
X1982550Y601800D02*
Y611800D01*
X1977550Y632200D02*
X1987550D01*
X1982550Y627200D02*
Y637200D01*
X1977550Y657600D02*
X1987550D01*
X1982550Y652600D02*
Y662600D01*
X1952150Y759200D02*
X1962150D01*
X1957150Y754200D02*
Y764200D01*
X1926750Y759200D02*
X1936750D01*
X1931750Y754200D02*
Y764200D01*
X1901350Y759200D02*
X1911350D01*
X1906350Y754200D02*
Y764200D01*
X1875950Y759200D02*
X1885950D01*
X1880950Y754200D02*
Y764200D01*
X1850550Y759200D02*
X1860550D01*
X1855550Y754200D02*
Y764200D01*
X1456000Y490000D02*
X1460000D01*
X1458000Y488000D02*
Y492000D01*
X1563000Y501000D02*
X1567000D01*
X1565000Y499000D02*
Y503000D01*
X1664000Y479000D02*
X1668000D01*
X1666000Y477000D02*
Y481000D01*
X1615000Y772000D02*
X1619000D01*
X1617000Y770000D02*
Y774000D01*
X1574000Y329000D02*
X1578000D01*
X1576000Y327000D02*
Y331000D01*
X1590000Y373000D02*
X1594000D01*
X1592000Y371000D02*
Y375000D01*
X1579600Y291000D02*
X1583600D01*
X1581600Y289000D02*
Y293000D01*
X1542320Y296850D02*
X1546320D01*
X1544320Y294850D02*
Y298850D01*
X1572000Y300000D02*
X1576000D01*
X1574000Y298000D02*
Y302000D01*
X1445000Y67000D02*
X1449000D01*
X1447000Y65000D02*
Y69000D01*
X1334000Y131000D02*
X1338000D01*
X1336000Y129000D02*
Y133000D01*
X1386000Y77000D02*
X1390000D01*
X1388000Y75000D02*
Y79000D01*
X1348000Y152000D02*
X1352000D01*
X1350000Y150000D02*
Y154000D01*
X1447478Y266969D02*
X1451478D01*
X1449478Y264969D02*
Y268969D01*
X1443000Y750000D02*
X1447000D01*
X1445000Y748000D02*
Y752000D01*
X1382000Y751000D02*
X1386000D01*
X1384000Y749000D02*
Y753000D01*
X1448000Y658000D02*
X1452000D01*
X1450000Y656000D02*
Y660000D01*
X1323000Y604000D02*
X1327000D01*
X1325000Y602000D02*
Y606000D01*
X1321000Y670000D02*
X1325000D01*
X1323000Y668000D02*
Y672000D01*
X1521000Y851000D02*
X1525000D01*
X1523000Y849000D02*
Y853000D01*
X1491000Y948000D02*
X1495000D01*
X1493000Y946000D02*
Y950000D01*
X1613000Y948000D02*
X1617000D01*
X1615000Y946000D02*
Y950000D01*
X1431000Y930000D02*
X1435000D01*
X1433000Y928000D02*
Y932000D01*
X1177000Y956000D02*
X1181000D01*
X1179000Y954000D02*
Y958000D01*
X1203000Y845000D02*
X1207000D01*
X1205000Y843000D02*
Y847000D01*
X1182000Y789000D02*
X1186000D01*
X1184000Y787000D02*
Y791000D01*
X1136000Y278000D02*
X1140000D01*
X1138000Y276000D02*
Y280000D01*
X1173000Y376000D02*
X1177000D01*
X1175000Y374000D02*
Y378000D01*
X1142000Y333000D02*
X1146000D01*
X1144000Y331000D02*
Y335000D01*
X1139000Y425000D02*
X1143000D01*
X1141000Y423000D02*
Y427000D01*
X1138000Y492000D02*
X1142000D01*
X1140000Y490000D02*
Y494000D01*
X1179000Y448000D02*
X1183000D01*
X1181000Y446000D02*
Y450000D01*
X1203000Y493000D02*
X1207000D01*
X1205000Y491000D02*
Y495000D01*
X1336000Y517000D02*
X1340000D01*
X1338000Y515000D02*
Y519000D01*
X1382000Y348000D02*
X1386000D01*
X1384000Y346000D02*
Y350000D01*
X1368000Y253000D02*
X1372000D01*
X1370000Y251000D02*
Y255000D01*
X1360000Y201000D02*
X1364000D01*
X1362000Y199000D02*
Y203000D01*
X1390000Y160750D02*
X1394000D01*
X1392000Y158750D02*
Y162750D01*
X1333000Y84550D02*
X1337000D01*
X1335000Y82550D02*
Y86550D01*
X1253000Y109000D02*
X1257000D01*
X1255000Y107000D02*
Y111000D01*
X1169000Y54000D02*
X1173000D01*
X1171000Y52000D02*
Y56000D01*
X1138000Y86000D02*
X1142000D01*
X1140000Y84000D02*
Y88000D01*
X1132000Y161000D02*
X1136000D01*
X1134000Y159000D02*
Y163000D01*
X1137000Y224000D02*
X1141000D01*
X1139000Y222000D02*
Y226000D01*
X1170000Y273000D02*
X1174000D01*
X1172000Y271000D02*
Y275000D01*
X1203000Y638000D02*
X1207000D01*
X1205000Y636000D02*
Y640000D01*
Y660625D02*
X1209000D01*
X1207000Y658625D02*
Y662625D01*
X1201000Y539000D02*
X1205000D01*
X1203000Y537000D02*
Y541000D01*
X1211000Y560000D02*
X1215000D01*
X1213000Y558000D02*
Y562000D01*
X1196200Y733800D02*
X1200200D01*
X1198200Y731800D02*
Y735800D01*
X1156000Y530600D02*
X1160000D01*
X1158000Y528600D02*
Y532600D01*
X1156000Y633000D02*
X1160000D01*
X1158000Y631000D02*
Y635000D01*
X1434000Y288500D02*
X1439000D01*
X1436500Y286000D02*
Y291000D01*
X1443055Y258000D02*
X1447055D01*
X1445055Y256000D02*
Y260000D01*
X1421000Y142000D02*
X1425000D01*
X1423000Y140000D02*
Y144000D01*
X1270000Y660000D02*
X1274000D01*
X1272000Y658000D02*
Y662000D01*
X1690000Y227000D02*
X1694000D01*
X1692000Y225000D02*
Y229000D01*
X1593000Y124000D02*
X1597000D01*
X1595000Y122000D02*
Y126000D01*
X1586000Y146000D02*
X1590000D01*
X1588000Y144000D02*
Y148000D01*
X1407000Y584000D02*
X1411000D01*
X1409000Y582000D02*
Y586000D01*
X1530000Y288000D02*
X1534000D01*
X1532000Y286000D02*
Y290000D01*
X1247000Y626000D02*
X1251000D01*
X1249000Y624000D02*
Y628000D01*
X1505490Y295580D02*
X1509490D01*
X1507490Y293580D02*
Y297580D01*
X1258000Y601000D02*
X1262000D01*
X1260000Y599000D02*
Y603000D01*
X1620000Y235000D02*
X1624000D01*
X1622000Y233000D02*
Y237000D01*
X1451000Y97000D02*
X1455000D01*
X1453000Y95000D02*
Y99000D01*
X1258000Y586000D02*
X1262000D01*
X1260000Y584000D02*
Y588000D01*
X1257000Y635000D02*
X1261000D01*
X1259000Y633000D02*
Y637000D01*
X1593000Y103000D02*
X1597000D01*
X1595000Y101000D02*
Y105000D01*
X1440000Y160000D02*
X1444000D01*
X1442000Y158000D02*
Y162000D01*
X1578000Y195000D02*
X1582000D01*
X1580000Y193000D02*
Y197000D01*
X1584000Y80000D02*
X1588000D01*
X1586000Y78000D02*
Y82000D01*
X1649000Y92000D02*
X1653000D01*
X1651000Y90000D02*
Y94000D01*
X1412000Y575000D02*
X1416000D01*
X1414000Y573000D02*
Y577000D01*
X1375000Y530000D02*
X1379000D01*
X1377000Y528000D02*
Y532000D01*
X1406430Y500050D02*
X1410430D01*
X1408430Y498050D02*
Y502050D01*
X1384840Y529260D02*
X1388840D01*
X1386840Y527260D02*
Y531260D01*
X1621000Y272000D02*
X1625000D01*
X1623000Y270000D02*
Y274000D01*
X1800515Y383000D02*
X1804516D01*
X1802516Y381000D02*
Y385000D01*
X1928000Y430000D02*
X1932000D01*
X1930000Y428000D02*
Y432000D01*
X1838000Y430000D02*
X1842000D01*
X1840000Y428000D02*
Y432000D01*
X1475010Y454330D02*
X1479010D01*
X1477010Y452330D02*
Y456330D01*
X1410000Y530000D02*
X1414000D01*
X1412000Y528000D02*
Y532000D01*
X1363000Y880000D02*
X1367000D01*
X1365000Y878000D02*
Y882000D01*
X1368000Y905000D02*
X1372000D01*
X1370000Y903000D02*
Y907000D01*
X1363000Y933000D02*
X1367000D01*
X1365000Y931000D02*
Y935000D01*
X1476000Y381000D02*
X1480000D01*
X1478000Y379000D02*
Y383000D01*
X2025000Y287000D02*
X2029000D01*
X2027000Y285000D02*
Y289000D01*
X1748000Y195000D02*
X1752000D01*
X1750000Y193000D02*
Y197000D01*
X1843000Y178000D02*
X1847000D01*
X1845000Y176000D02*
Y180000D01*
X1913000Y85000D02*
X1917000D01*
X1915000Y83000D02*
Y87000D01*
X1758000Y40000D02*
X1762000D01*
X1760000Y38000D02*
Y42000D01*
X1978000Y89000D02*
X1982000D01*
X1980000Y87000D02*
Y91000D01*
X1938000Y181000D02*
X1942000D01*
X1940000Y179000D02*
Y183000D01*
X1640000Y197000D02*
X1644000D01*
X1642000Y195000D02*
Y199000D01*
X1707000Y83000D02*
X1711000D01*
X1709000Y81000D02*
Y85000D01*
X1751000D02*
X1755000D01*
X1753000Y83000D02*
Y87000D01*
X1656000Y152000D02*
X1660000D01*
X1658000Y150000D02*
Y154000D01*
X1899000Y377000D02*
X1903000D01*
X1901000Y375000D02*
Y379000D01*
X1475010Y203000D02*
X1479010D01*
X1477010Y201000D02*
Y205000D01*
X1648000Y170000D02*
X1652000D01*
X1650000Y168000D02*
Y172000D01*
X1615925Y112075D02*
X1619925D01*
X1617925Y110075D02*
Y114075D01*
X1614000Y147000D02*
X1618000D01*
X1616000Y145000D02*
Y149000D01*
X1731000Y383000D02*
X1735000D01*
X1733000Y381000D02*
Y385000D01*
X1469500Y634000D02*
X1474500D01*
X1472000Y631500D02*
Y636500D01*
X1873000Y465000D02*
X1877000D01*
X1875000Y463000D02*
Y467000D01*
X1487500Y590000D02*
X1492500D01*
X1490000Y587500D02*
Y592500D01*
X1658235Y770130D02*
X1662234D01*
X1660235Y768130D02*
Y772130D01*
X1669000Y70000D02*
X1673000D01*
X1671000Y68000D02*
Y72000D01*
X1818000Y818000D02*
X1822000D01*
X1820000Y816000D02*
Y820000D01*
X1724000Y153000D02*
X1728000D01*
X1726000Y151000D02*
Y155000D01*
X1723526Y162989D02*
X1727526D01*
X1725526Y160989D02*
Y164989D01*
X1931000Y405000D02*
X1935000D01*
X1933000Y403000D02*
Y407000D01*
X1946000Y405000D02*
X1950000D01*
X1948000Y403000D02*
Y407000D01*
X1640785Y772750D02*
X1644785D01*
X1642785Y770750D02*
Y774750D01*
X1515129Y254001D02*
X1519129D01*
X1517129Y252001D02*
Y256001D01*
X1690000Y42000D02*
X1694000D01*
X1692000Y40000D02*
Y44000D01*
X1707000Y38000D02*
X1711000D01*
X1709000Y36000D02*
Y40000D01*
X1477298Y257104D02*
X1481298D01*
X1479298Y255104D02*
Y259104D01*
X1708000Y175000D02*
X1712000D01*
X1710000Y173000D02*
Y177000D01*
M02*
