G04*
G04 #@! TF.GenerationSoftware,Altium Limited,Altium Designer,20.2.4 (192)*
G04*
G04 Layer_Color=255*
%FSLAX44Y44*%
%MOMM*%
G71*
G04*
G04 #@! TF.SameCoordinates,BE2EEFCD-C29F-4362-AD25-489BCFFAE24D*
G04*
G04*
G04 #@! TF.FilePolarity,Positive*
G04*
G01*
G75*
G04:AMPARAMS|DCode=16|XSize=0.975mm|YSize=1.4mm|CornerRadius=0.1219mm|HoleSize=0mm|Usage=FLASHONLY|Rotation=180.000|XOffset=0mm|YOffset=0mm|HoleType=Round|Shape=RoundedRectangle|*
%AMROUNDEDRECTD16*
21,1,0.9750,1.1563,0,0,180.0*
21,1,0.7313,1.4000,0,0,180.0*
1,1,0.2438,-0.3656,0.5781*
1,1,0.2438,0.3656,0.5781*
1,1,0.2438,0.3656,-0.5781*
1,1,0.2438,-0.3656,-0.5781*
%
%ADD16ROUNDEDRECTD16*%
G04:AMPARAMS|DCode=17|XSize=1.95mm|YSize=0.6mm|CornerRadius=0.075mm|HoleSize=0mm|Usage=FLASHONLY|Rotation=180.000|XOffset=0mm|YOffset=0mm|HoleType=Round|Shape=RoundedRectangle|*
%AMROUNDEDRECTD17*
21,1,1.9500,0.4500,0,0,180.0*
21,1,1.8000,0.6000,0,0,180.0*
1,1,0.1500,-0.9000,0.2250*
1,1,0.1500,0.9000,0.2250*
1,1,0.1500,0.9000,-0.2250*
1,1,0.1500,-0.9000,-0.2250*
%
%ADD17ROUNDEDRECTD17*%
G04:AMPARAMS|DCode=18|XSize=0.975mm|YSize=1.4mm|CornerRadius=0.1219mm|HoleSize=0mm|Usage=FLASHONLY|Rotation=270.000|XOffset=0mm|YOffset=0mm|HoleType=Round|Shape=RoundedRectangle|*
%AMROUNDEDRECTD18*
21,1,0.9750,1.1563,0,0,270.0*
21,1,0.7313,1.4000,0,0,270.0*
1,1,0.2438,-0.5781,-0.3656*
1,1,0.2438,-0.5781,0.3656*
1,1,0.2438,0.5781,0.3656*
1,1,0.2438,0.5781,-0.3656*
%
%ADD18ROUNDEDRECTD18*%
%ADD19R,2.5000X2.3000*%
G04:AMPARAMS|DCode=20|XSize=2.075mm|YSize=2.55mm|CornerRadius=0.1245mm|HoleSize=0mm|Usage=FLASHONLY|Rotation=90.000|XOffset=0mm|YOffset=0mm|HoleType=Round|Shape=RoundedRectangle|*
%AMROUNDEDRECTD20*
21,1,2.0750,2.3010,0,0,90.0*
21,1,1.8260,2.5500,0,0,90.0*
1,1,0.2490,1.1505,0.9130*
1,1,0.2490,1.1505,-0.9130*
1,1,0.2490,-1.1505,-0.9130*
1,1,0.2490,-1.1505,0.9130*
%
%ADD20ROUNDEDRECTD20*%
G04:AMPARAMS|DCode=21|XSize=1.325mm|YSize=2.35mm|CornerRadius=0.1259mm|HoleSize=0mm|Usage=FLASHONLY|Rotation=0.000|XOffset=0mm|YOffset=0mm|HoleType=Round|Shape=RoundedRectangle|*
%AMROUNDEDRECTD21*
21,1,1.3250,2.0983,0,0,0.0*
21,1,1.0733,2.3500,0,0,0.0*
1,1,0.2517,0.5366,-1.0491*
1,1,0.2517,-0.5366,-1.0491*
1,1,0.2517,-0.5366,1.0491*
1,1,0.2517,0.5366,1.0491*
%
%ADD21ROUNDEDRECTD21*%
%ADD22R,0.6000X0.4500*%
%ADD23R,1.5000X0.6000*%
G04:AMPARAMS|DCode=24|XSize=1.15mm|YSize=1.4mm|CornerRadius=0.1265mm|HoleSize=0mm|Usage=FLASHONLY|Rotation=0.000|XOffset=0mm|YOffset=0mm|HoleType=Round|Shape=RoundedRectangle|*
%AMROUNDEDRECTD24*
21,1,1.1500,1.1470,0,0,0.0*
21,1,0.8970,1.4000,0,0,0.0*
1,1,0.2530,0.4485,-0.5735*
1,1,0.2530,-0.4485,-0.5735*
1,1,0.2530,-0.4485,0.5735*
1,1,0.2530,0.4485,0.5735*
%
%ADD24ROUNDEDRECTD24*%
%ADD25R,1.5500X0.6000*%
%ADD26R,2.5000X1.8000*%
%ADD27R,1.0000X1.1500*%
%ADD28R,4.6000X1.1000*%
%ADD29R,0.8000X0.9000*%
G04:AMPARAMS|DCode=30|XSize=1.125mm|YSize=3.4mm|CornerRadius=0.1238mm|HoleSize=0mm|Usage=FLASHONLY|Rotation=180.000|XOffset=0mm|YOffset=0mm|HoleType=Round|Shape=RoundedRectangle|*
%AMROUNDEDRECTD30*
21,1,1.1250,3.1525,0,0,180.0*
21,1,0.8775,3.4000,0,0,180.0*
1,1,0.2475,-0.4387,1.5763*
1,1,0.2475,0.4387,1.5763*
1,1,0.2475,0.4387,-1.5763*
1,1,0.2475,-0.4387,-1.5763*
%
%ADD30ROUNDEDRECTD30*%
%ADD64R,9.4000X10.8000*%
%ADD73C,1.6000*%
%ADD74C,1.8000*%
%ADD75C,2.0000*%
G04:AMPARAMS|DCode=76|XSize=1.7mm|YSize=1.7mm|CornerRadius=0.85mm|HoleSize=0mm|Usage=FLASHONLY|Rotation=90.000|XOffset=0mm|YOffset=0mm|HoleType=Round|Shape=RoundedRectangle|*
%AMROUNDEDRECTD76*
21,1,1.7000,0.0000,0,0,90.0*
21,1,0.0000,1.7000,0,0,90.0*
1,1,1.7000,0.0000,0.0000*
1,1,1.7000,0.0000,0.0000*
1,1,1.7000,0.0000,0.0000*
1,1,1.7000,0.0000,0.0000*
%
%ADD76ROUNDEDRECTD76*%
%ADD77R,1.7000X1.7000*%
G04:AMPARAMS|DCode=78|XSize=1.7mm|YSize=1.7mm|CornerRadius=0.85mm|HoleSize=0mm|Usage=FLASHONLY|Rotation=0.000|XOffset=0mm|YOffset=0mm|HoleType=Round|Shape=RoundedRectangle|*
%AMROUNDEDRECTD78*
21,1,1.7000,0.0000,0,0,0.0*
21,1,0.0000,1.7000,0,0,0.0*
1,1,1.7000,0.0000,0.0000*
1,1,1.7000,0.0000,0.0000*
1,1,1.7000,0.0000,0.0000*
1,1,1.7000,0.0000,0.0000*
%
%ADD78ROUNDEDRECTD78*%
%ADD79R,1.7000X1.7000*%
%ADD80C,1.5000*%
%ADD81C,4.1000*%
G04:AMPARAMS|DCode=82|XSize=1.7272mm|YSize=1.7272mm|CornerRadius=0.8636mm|HoleSize=0mm|Usage=FLASHONLY|Rotation=0.000|XOffset=0mm|YOffset=0mm|HoleType=Round|Shape=RoundedRectangle|*
%AMROUNDEDRECTD82*
21,1,1.7272,0.0000,0,0,0.0*
21,1,0.0000,1.7272,0,0,0.0*
1,1,1.7272,0.0000,0.0000*
1,1,1.7272,0.0000,0.0000*
1,1,1.7272,0.0000,0.0000*
1,1,1.7272,0.0000,0.0000*
%
%ADD82ROUNDEDRECTD82*%
%ADD83C,1.3810*%
%ADD84R,1.6000X1.6000*%
G04:AMPARAMS|DCode=85|XSize=1.6mm|YSize=1.6mm|CornerRadius=0.8mm|HoleSize=0mm|Usage=FLASHONLY|Rotation=90.000|XOffset=0mm|YOffset=0mm|HoleType=Round|Shape=RoundedRectangle|*
%AMROUNDEDRECTD85*
21,1,1.6000,0.0000,0,0,90.0*
21,1,0.0000,1.6000,0,0,90.0*
1,1,1.6000,0.0000,0.0000*
1,1,1.6000,0.0000,0.0000*
1,1,1.6000,0.0000,0.0000*
1,1,1.6000,0.0000,0.0000*
%
%ADD85ROUNDEDRECTD85*%
%ADD86C,2.6000*%
%ADD87R,2.6000X2.6000*%
D16*
X1788625Y403000D02*
D03*
X1807375D02*
D03*
X1788625Y458000D02*
D03*
X1807375D02*
D03*
X1861875Y914000D02*
D03*
X1843125D02*
D03*
X1932375Y855000D02*
D03*
X1913625D02*
D03*
X1375625Y428000D02*
D03*
X1394375D02*
D03*
X1491375Y101000D02*
D03*
X1472625D02*
D03*
X1540625Y882000D02*
D03*
X1559375D02*
D03*
X1504625D02*
D03*
X1523375D02*
D03*
X1294625Y822000D02*
D03*
X1313375D02*
D03*
X1421375Y56000D02*
D03*
X1402625D02*
D03*
X1658375Y281000D02*
D03*
X1639625D02*
D03*
X1446625Y204000D02*
D03*
X1465375D02*
D03*
X1533625Y56000D02*
D03*
X1552375D02*
D03*
X1722000Y281000D02*
D03*
X1740750D02*
D03*
X1533625Y146000D02*
D03*
X1552375D02*
D03*
X1421375Y101000D02*
D03*
X1402625D02*
D03*
X1421375Y78500D02*
D03*
X1402625D02*
D03*
X1421375Y123500D02*
D03*
X1402625D02*
D03*
X1533625Y101000D02*
D03*
X1552375D02*
D03*
X1533625Y78500D02*
D03*
X1552375D02*
D03*
X1533625Y123500D02*
D03*
X1552375D02*
D03*
X1959625Y241000D02*
D03*
X1978375D02*
D03*
X1445625Y428000D02*
D03*
X1464375D02*
D03*
Y453000D02*
D03*
X1445625D02*
D03*
X1181625Y593000D02*
D03*
X1200375D02*
D03*
Y515000D02*
D03*
X1181625D02*
D03*
Y693000D02*
D03*
X1200375D02*
D03*
Y615000D02*
D03*
X1181625D02*
D03*
X1305250Y934000D02*
D03*
X1324000D02*
D03*
X1305625Y955000D02*
D03*
X1324375D02*
D03*
X1788625Y430000D02*
D03*
X1807375D02*
D03*
X1287375Y934000D02*
D03*
X1268625D02*
D03*
Y955000D02*
D03*
X1287375D02*
D03*
X1609625Y445000D02*
D03*
X1628375D02*
D03*
Y465000D02*
D03*
X1609625D02*
D03*
X1165375Y593000D02*
D03*
X1146625D02*
D03*
Y515000D02*
D03*
X1165375D02*
D03*
X1429375Y428000D02*
D03*
X1410625D02*
D03*
Y453000D02*
D03*
X1429375D02*
D03*
X1394375D02*
D03*
X1375625D02*
D03*
X1324375Y892000D02*
D03*
X1305625D02*
D03*
X1324375Y913000D02*
D03*
X1305625D02*
D03*
X1287375Y892000D02*
D03*
X1268625D02*
D03*
Y913000D02*
D03*
X1287375D02*
D03*
X1867250Y430000D02*
D03*
X1886000D02*
D03*
X1628375Y360000D02*
D03*
X1609625D02*
D03*
Y380000D02*
D03*
X1628375D02*
D03*
X1200375Y715000D02*
D03*
X1181625D02*
D03*
X1165375Y615000D02*
D03*
X1146625D02*
D03*
X1410625Y378000D02*
D03*
X1429375D02*
D03*
X1410625Y403000D02*
D03*
X1429375D02*
D03*
X1394375Y378000D02*
D03*
X1375625D02*
D03*
X1394375Y403000D02*
D03*
X1375625D02*
D03*
X1639625Y261000D02*
D03*
X1658375D02*
D03*
X1491375Y56000D02*
D03*
X1472625D02*
D03*
X1693375Y281000D02*
D03*
X1674625D02*
D03*
X1446625Y183000D02*
D03*
X1465375D02*
D03*
X1491375Y146000D02*
D03*
X1472625D02*
D03*
X1456375Y78500D02*
D03*
X1437625D02*
D03*
Y123500D02*
D03*
X1456375D02*
D03*
X1472625Y78500D02*
D03*
X1491375D02*
D03*
X1472625Y123500D02*
D03*
X1491375D02*
D03*
X1942375Y241000D02*
D03*
X1923625D02*
D03*
X1464375Y378000D02*
D03*
X1445625D02*
D03*
Y403000D02*
D03*
X1464375D02*
D03*
X1867375Y202000D02*
D03*
X1848625D02*
D03*
X1867375Y119000D02*
D03*
X1848625D02*
D03*
X1679625Y369000D02*
D03*
X1698375D02*
D03*
X1714000D02*
D03*
X1732750D02*
D03*
X1512375Y415000D02*
D03*
X1493625D02*
D03*
X1547375D02*
D03*
X1528625D02*
D03*
X1512375Y500000D02*
D03*
X1493625D02*
D03*
X1547375D02*
D03*
X1528625D02*
D03*
D17*
X1390250Y576950D02*
D03*
Y589650D02*
D03*
Y602350D02*
D03*
Y615050D02*
D03*
X1439750D02*
D03*
Y602350D02*
D03*
Y589650D02*
D03*
Y576950D02*
D03*
X1390250Y480950D02*
D03*
Y493650D02*
D03*
Y506350D02*
D03*
Y519050D02*
D03*
X1439750D02*
D03*
Y506350D02*
D03*
Y493650D02*
D03*
Y480950D02*
D03*
X1230750Y673050D02*
D03*
Y660350D02*
D03*
Y647650D02*
D03*
Y634950D02*
D03*
X1181250D02*
D03*
Y647650D02*
D03*
Y660350D02*
D03*
Y673050D02*
D03*
X1230750Y573050D02*
D03*
Y560350D02*
D03*
Y547650D02*
D03*
Y534950D02*
D03*
X1181250D02*
D03*
Y547650D02*
D03*
Y560350D02*
D03*
Y573050D02*
D03*
D18*
X1620000Y834625D02*
D03*
Y853375D02*
D03*
X1599000D02*
D03*
Y834625D02*
D03*
X1492000Y679375D02*
D03*
Y660625D02*
D03*
X1513000Y679375D02*
D03*
Y660625D02*
D03*
X1559000Y276375D02*
D03*
Y257625D02*
D03*
X1578000Y834625D02*
D03*
Y853375D02*
D03*
X1557000D02*
D03*
Y834625D02*
D03*
X1555000Y679375D02*
D03*
Y660625D02*
D03*
X1534000Y679375D02*
D03*
Y660625D02*
D03*
X1275000Y841375D02*
D03*
Y822625D02*
D03*
X1579000Y276375D02*
D03*
Y257625D02*
D03*
X1721000Y210625D02*
D03*
Y229375D02*
D03*
X1742000D02*
D03*
Y210625D02*
D03*
Y129375D02*
D03*
Y110625D02*
D03*
X1883000Y345625D02*
D03*
Y364375D02*
D03*
Y280375D02*
D03*
Y261625D02*
D03*
X1862000Y280375D02*
D03*
Y261625D02*
D03*
Y364375D02*
D03*
Y345625D02*
D03*
D19*
X1843500Y840000D02*
D03*
X1886500D02*
D03*
D20*
X1927500Y883875D02*
D03*
Y946125D02*
D03*
D21*
X1839625Y942500D02*
D03*
X1870375D02*
D03*
D22*
X1215500Y693000D02*
D03*
X1236500D02*
D03*
Y593000D02*
D03*
X1215500D02*
D03*
Y515000D02*
D03*
X1236500D02*
D03*
X1404500Y538000D02*
D03*
X1383500D02*
D03*
X1446500D02*
D03*
X1425500D02*
D03*
X1404500Y558000D02*
D03*
X1383500D02*
D03*
X1236500Y615000D02*
D03*
X1215500D02*
D03*
X1929500Y280000D02*
D03*
X1908500D02*
D03*
X1446500Y558000D02*
D03*
X1425500D02*
D03*
X1669500Y195000D02*
D03*
X1690500D02*
D03*
D23*
X1633000Y173450D02*
D03*
Y160750D02*
D03*
Y148050D02*
D03*
Y135350D02*
D03*
Y122650D02*
D03*
Y109950D02*
D03*
Y97250D02*
D03*
Y84550D02*
D03*
X1687000D02*
D03*
Y97250D02*
D03*
Y109950D02*
D03*
Y122650D02*
D03*
Y135350D02*
D03*
Y148050D02*
D03*
Y160750D02*
D03*
Y173450D02*
D03*
D24*
X1749000Y369000D02*
D03*
X1769500D02*
D03*
D25*
X1496000Y442950D02*
D03*
Y455650D02*
D03*
Y468350D02*
D03*
Y481050D02*
D03*
X1550000D02*
D03*
Y468350D02*
D03*
Y455650D02*
D03*
Y442950D02*
D03*
Y357950D02*
D03*
Y370650D02*
D03*
Y383350D02*
D03*
Y396050D02*
D03*
X1496000D02*
D03*
Y383350D02*
D03*
Y370650D02*
D03*
Y357950D02*
D03*
D26*
X1845000Y882500D02*
D03*
X1885000D02*
D03*
D27*
X1743000Y401750D02*
D03*
X1718000D02*
D03*
X1693000D02*
D03*
X1743000Y458250D02*
D03*
X1718000D02*
D03*
X1693000D02*
D03*
D28*
X1797750Y877100D02*
D03*
Y902500D02*
D03*
Y927900D02*
D03*
D29*
X1540500Y277000D02*
D03*
X1521500D02*
D03*
X1531000Y257000D02*
D03*
X1459000D02*
D03*
X1449500Y277000D02*
D03*
X1468500D02*
D03*
X1504500D02*
D03*
X1485500D02*
D03*
X1495000Y257000D02*
D03*
D30*
X1541375Y195000D02*
D03*
X1498625D02*
D03*
X1908625Y470000D02*
D03*
X1951375D02*
D03*
D64*
X1706250Y902500D02*
D03*
D73*
X1412000Y650000D02*
D03*
X1401000Y204000D02*
D03*
Y249000D02*
D03*
D74*
X1205000Y138000D02*
D03*
Y168000D02*
D03*
X1230000Y153000D02*
D03*
Y183000D02*
D03*
X1260000Y153000D02*
D03*
Y183000D02*
D03*
X1285000Y138000D02*
D03*
Y168000D02*
D03*
X1205000Y378000D02*
D03*
Y348000D02*
D03*
Y318000D02*
D03*
Y288000D02*
D03*
Y258000D02*
D03*
Y228000D02*
D03*
Y198000D02*
D03*
X1230000Y363000D02*
D03*
Y333000D02*
D03*
Y303000D02*
D03*
Y273000D02*
D03*
Y243000D02*
D03*
Y213000D02*
D03*
X1260000D02*
D03*
Y243000D02*
D03*
Y273000D02*
D03*
Y303000D02*
D03*
Y333000D02*
D03*
Y363000D02*
D03*
X1285000Y198000D02*
D03*
Y228000D02*
D03*
Y258000D02*
D03*
Y288000D02*
D03*
Y318000D02*
D03*
Y348000D02*
D03*
Y378000D02*
D03*
X1989000Y931000D02*
D03*
X1969000Y856000D02*
D03*
D75*
X1957150Y505200D02*
D03*
X1931750D02*
D03*
X1906350D02*
D03*
X1880950D02*
D03*
X1855550D02*
D03*
X1830150D02*
D03*
X1804750D02*
D03*
X1779350D02*
D03*
X1753950D02*
D03*
X1728550D02*
D03*
X1703150D02*
D03*
X1677750D02*
D03*
X1652350D02*
D03*
X1626950D02*
D03*
X1601550D02*
D03*
X1957150Y530600D02*
D03*
X1931750D02*
D03*
X1906350D02*
D03*
X1880950D02*
D03*
X1855550D02*
D03*
X1830150D02*
D03*
X1804750D02*
D03*
X1779350D02*
D03*
X1753950D02*
D03*
X1728550D02*
D03*
X1703150D02*
D03*
X1677750D02*
D03*
X1652350D02*
D03*
X1626950D02*
D03*
X1601550D02*
D03*
X1957150Y556000D02*
D03*
X1931750D02*
D03*
X1906350D02*
D03*
X1880950D02*
D03*
X1855550D02*
D03*
X1830150D02*
D03*
X1804750D02*
D03*
X1779350D02*
D03*
X1753950D02*
D03*
X1728550D02*
D03*
X1703150D02*
D03*
X1677750D02*
D03*
X1652350D02*
D03*
X1626950D02*
D03*
X1601550D02*
D03*
X1957150Y581400D02*
D03*
X1931750D02*
D03*
X1906350D02*
D03*
X1880950D02*
D03*
X1855550D02*
D03*
X1830150D02*
D03*
X1804750D02*
D03*
X1779350D02*
D03*
X1753950D02*
D03*
X1728550D02*
D03*
X1703150D02*
D03*
X1677750D02*
D03*
X1652350D02*
D03*
X1626950D02*
D03*
X1601550D02*
D03*
X1957150Y606800D02*
D03*
X1931750D02*
D03*
X1906350D02*
D03*
X1880950D02*
D03*
X1855550D02*
D03*
X1830150D02*
D03*
X1804750D02*
D03*
X1779350D02*
D03*
X1753950D02*
D03*
X1728550D02*
D03*
X1703150D02*
D03*
X1677750D02*
D03*
X1652350D02*
D03*
X1626950D02*
D03*
X1601550D02*
D03*
X1957150Y632200D02*
D03*
X1931750D02*
D03*
X1906350D02*
D03*
X1880950D02*
D03*
X1855550D02*
D03*
X1830150D02*
D03*
X1804750D02*
D03*
X1779350D02*
D03*
X1753950D02*
D03*
X1728550D02*
D03*
X1703150D02*
D03*
X1677750D02*
D03*
X1652350D02*
D03*
X1626950D02*
D03*
X1601550D02*
D03*
X1957150Y657600D02*
D03*
X1931750D02*
D03*
X1906350D02*
D03*
X1880950D02*
D03*
X1855550D02*
D03*
X1830150D02*
D03*
X1804750D02*
D03*
X1779350D02*
D03*
X1753950D02*
D03*
X1728550D02*
D03*
X1703150D02*
D03*
X1677750D02*
D03*
X1652350D02*
D03*
X1626950D02*
D03*
X1601550D02*
D03*
X1957150Y683000D02*
D03*
X1931750D02*
D03*
X1906350D02*
D03*
X1880950D02*
D03*
X1855550D02*
D03*
X1830150D02*
D03*
X1804750D02*
D03*
X1779350D02*
D03*
X1753950D02*
D03*
X1728550D02*
D03*
X1703150D02*
D03*
X1677750D02*
D03*
X1652350D02*
D03*
X1626950D02*
D03*
X1601550D02*
D03*
X1957150Y708400D02*
D03*
X1931750D02*
D03*
X1906350D02*
D03*
X1880950D02*
D03*
X1855550D02*
D03*
X1830150D02*
D03*
X1804750D02*
D03*
X1779350D02*
D03*
X1753950D02*
D03*
X1728550D02*
D03*
X1703150D02*
D03*
X1677750D02*
D03*
X1652350D02*
D03*
X1626950D02*
D03*
X1601550D02*
D03*
X1957150Y733800D02*
D03*
X1931750D02*
D03*
X1906350D02*
D03*
X1880950D02*
D03*
X1855550D02*
D03*
X1830150D02*
D03*
X1804750D02*
D03*
X1779350D02*
D03*
X1753950D02*
D03*
X1728550D02*
D03*
X1703150D02*
D03*
X1677750D02*
D03*
X1652350D02*
D03*
X1626950D02*
D03*
X1601550D02*
D03*
D76*
X1830150Y759200D02*
D03*
X1804750D02*
D03*
X1611800Y911000D02*
D03*
X1586400D02*
D03*
X1561000D02*
D03*
X1535600D02*
D03*
X1510200D02*
D03*
X1957150Y759200D02*
D03*
X1931750D02*
D03*
X1906350D02*
D03*
X1880950D02*
D03*
D77*
X1779350D02*
D03*
X1484800Y911000D02*
D03*
X1855550Y759200D02*
D03*
D78*
X1772000Y110600D02*
D03*
Y210600D02*
D03*
X1809000Y85200D02*
D03*
Y110600D02*
D03*
Y185200D02*
D03*
Y210600D02*
D03*
X1581000Y444800D02*
D03*
Y419400D02*
D03*
X1982550Y708400D02*
D03*
Y733800D02*
D03*
Y759200D02*
D03*
Y581400D02*
D03*
Y606800D02*
D03*
Y632200D02*
D03*
Y657600D02*
D03*
D79*
X1772000Y136000D02*
D03*
Y236000D02*
D03*
X1809000Y136000D02*
D03*
Y236000D02*
D03*
X1581000Y394000D02*
D03*
X1982550Y683000D02*
D03*
Y556000D02*
D03*
D80*
X1258200Y754430D02*
D03*
Y779830D02*
D03*
Y805230D02*
D03*
D81*
X1135000Y933430D02*
D03*
D82*
X1607000Y316400D02*
D03*
X1556200D02*
D03*
X1530800D02*
D03*
X1505400D02*
D03*
X1480000D02*
D03*
X1454600D02*
D03*
X1429200D02*
D03*
X1403800D02*
D03*
X1962600Y799000D02*
D03*
X1937200D02*
D03*
X1911800D02*
D03*
X1886400D02*
D03*
X1861000D02*
D03*
X1835600D02*
D03*
X1810200D02*
D03*
X1784800D02*
D03*
X1734000D02*
D03*
X1708600D02*
D03*
X1683200D02*
D03*
X1657800D02*
D03*
X1632400D02*
D03*
X1607000D02*
D03*
X1581600D02*
D03*
X1556200D02*
D03*
X1363160D02*
D03*
X1515560D02*
D03*
X1490160D02*
D03*
X1464760D02*
D03*
X1286960D02*
D03*
X1312360D02*
D03*
X1337760D02*
D03*
X1388560D02*
D03*
X1413960D02*
D03*
X1439360D02*
D03*
X1378400Y316400D02*
D03*
X1632400D02*
D03*
X1657800D02*
D03*
X1683200D02*
D03*
X1708600D02*
D03*
X1734000D02*
D03*
X1759400D02*
D03*
X1784800D02*
D03*
X1835600D02*
D03*
X1861000D02*
D03*
X1886400D02*
D03*
X1911800D02*
D03*
X1937200D02*
D03*
X1962600D02*
D03*
X1988000D02*
D03*
X2013400D02*
D03*
X2038800Y799000D02*
D03*
X2064200D02*
D03*
X2038800Y773600D02*
D03*
X2064200D02*
D03*
X2038800Y748200D02*
D03*
X2064200D02*
D03*
X2038800Y722800D02*
D03*
X2064200D02*
D03*
X2038800Y697400D02*
D03*
X2064200D02*
D03*
X2038800Y672000D02*
D03*
X2064200D02*
D03*
X2038800Y646600D02*
D03*
X2064200D02*
D03*
X2038800Y621200D02*
D03*
X2064200D02*
D03*
X2038800Y595800D02*
D03*
X2064200D02*
D03*
X2038800Y570400D02*
D03*
X2064200D02*
D03*
X2038800Y545000D02*
D03*
X2064200D02*
D03*
X2038800Y519600D02*
D03*
X2064200D02*
D03*
X2038800Y494200D02*
D03*
X2064200D02*
D03*
X2038800Y468800D02*
D03*
X2064200D02*
D03*
X2038800Y443400D02*
D03*
X2064200D02*
D03*
X2038800Y418000D02*
D03*
X2064200D02*
D03*
X2038800Y392600D02*
D03*
X2064200D02*
D03*
X2038800Y367200D02*
D03*
X2064200D02*
D03*
D83*
X1733000Y430000D02*
D03*
X1703000D02*
D03*
D84*
X1299000Y726000D02*
D03*
X1451400D02*
D03*
X1930000Y135000D02*
D03*
D85*
X1476800Y853000D02*
D03*
X1324400Y726000D02*
D03*
X1451400Y853000D02*
D03*
X1349800Y726000D02*
D03*
X1426000Y853000D02*
D03*
X1375200Y726000D02*
D03*
X1400600Y853000D02*
D03*
Y726000D02*
D03*
X1375200Y853000D02*
D03*
X1426000Y726000D02*
D03*
X1349800Y853000D02*
D03*
X1324400D02*
D03*
X1476800Y726000D02*
D03*
X1299000Y853000D02*
D03*
X2006200Y211200D02*
D03*
X1955400Y135000D02*
D03*
X1980800Y211200D02*
D03*
Y135000D02*
D03*
X1955400Y211200D02*
D03*
X2006200Y135000D02*
D03*
X1930000Y211200D02*
D03*
D86*
X2050000Y880000D02*
D03*
D87*
Y930000D02*
D03*
M02*
