G04*
G04 #@! TF.GenerationSoftware,Altium Limited,Altium Designer,20.2.4 (192)*
G04*
G04 Layer_Color=16711935*
%FSLAX44Y44*%
%MOMM*%
G71*
G04*
G04 #@! TF.SameCoordinates,BE2EEFCD-C29F-4362-AD25-489BCFFAE24D*
G04*
G04*
G04 #@! TF.FilePolarity,Negative*
G04*
G01*
G75*
%ADD47C,1.7000*%
%ADD48C,2.0032*%
%ADD49C,2.1020*%
G04:AMPARAMS|DCode=50|XSize=1.802mm|YSize=1.802mm|CornerRadius=0.901mm|HoleSize=0mm|Usage=FLASHONLY|Rotation=90.000|XOffset=0mm|YOffset=0mm|HoleType=Round|Shape=RoundedRectangle|*
%AMROUNDEDRECTD50*
21,1,1.8020,0.0000,0,0,90.0*
21,1,0.0000,1.8020,0,0,90.0*
1,1,1.8020,0.0000,0.0000*
1,1,1.8020,0.0000,0.0000*
1,1,1.8020,0.0000,0.0000*
1,1,1.8020,0.0000,0.0000*
%
%ADD50ROUNDEDRECTD50*%
%ADD51R,1.8020X1.8020*%
G04:AMPARAMS|DCode=52|XSize=1.802mm|YSize=1.802mm|CornerRadius=0.901mm|HoleSize=0mm|Usage=FLASHONLY|Rotation=0.000|XOffset=0mm|YOffset=0mm|HoleType=Round|Shape=RoundedRectangle|*
%AMROUNDEDRECTD52*
21,1,1.8020,0.0000,0,0,0.0*
21,1,0.0000,1.8020,0,0,0.0*
1,1,1.8020,0.0000,0.0000*
1,1,1.8020,0.0000,0.0000*
1,1,1.8020,0.0000,0.0000*
1,1,1.8020,0.0000,0.0000*
%
%ADD52ROUNDEDRECTD52*%
%ADD53R,1.8020X1.8020*%
%ADD54C,1.6020*%
%ADD55C,0.1020*%
%ADD56C,4.2020*%
%ADD57C,1.9020*%
G04:AMPARAMS|DCode=58|XSize=1.8292mm|YSize=1.8292mm|CornerRadius=0.9146mm|HoleSize=0mm|Usage=FLASHONLY|Rotation=0.000|XOffset=0mm|YOffset=0mm|HoleType=Round|Shape=RoundedRectangle|*
%AMROUNDEDRECTD58*
21,1,1.8292,0.0000,0,0,0.0*
21,1,0.0000,1.8292,0,0,0.0*
1,1,1.8292,0.0000,0.0000*
1,1,1.8292,0.0000,0.0000*
1,1,1.8292,0.0000,0.0000*
1,1,1.8292,0.0000,0.0000*
%
%ADD58ROUNDEDRECTD58*%
%ADD59C,1.4830*%
%ADD60R,1.7020X1.7020*%
G04:AMPARAMS|DCode=61|XSize=1.702mm|YSize=1.702mm|CornerRadius=0.851mm|HoleSize=0mm|Usage=FLASHONLY|Rotation=90.000|XOffset=0mm|YOffset=0mm|HoleType=Round|Shape=RoundedRectangle|*
%AMROUNDEDRECTD61*
21,1,1.7020,0.0000,0,0,90.0*
21,1,0.0000,1.7020,0,0,90.0*
1,1,1.7020,0.0000,0.0000*
1,1,1.7020,0.0000,0.0000*
1,1,1.7020,0.0000,0.0000*
1,1,1.7020,0.0000,0.0000*
%
%ADD61ROUNDEDRECTD61*%
%ADD62C,2.7020*%
%ADD63R,2.7020X2.7020*%
D47*
X1412000Y650000D02*
D03*
X1401000Y204000D02*
D03*
Y249000D02*
D03*
D48*
X1205000Y138000D02*
D03*
Y168000D02*
D03*
X1230000Y153000D02*
D03*
Y183000D02*
D03*
X1260000Y153000D02*
D03*
Y183000D02*
D03*
X1285000Y138000D02*
D03*
Y168000D02*
D03*
X1205000Y378000D02*
D03*
Y348000D02*
D03*
Y318000D02*
D03*
Y288000D02*
D03*
Y258000D02*
D03*
Y228000D02*
D03*
Y198000D02*
D03*
X1230000Y363000D02*
D03*
Y333000D02*
D03*
Y303000D02*
D03*
Y273000D02*
D03*
Y243000D02*
D03*
Y213000D02*
D03*
X1260000D02*
D03*
Y243000D02*
D03*
Y273000D02*
D03*
Y303000D02*
D03*
Y333000D02*
D03*
Y363000D02*
D03*
X1285000Y198000D02*
D03*
Y228000D02*
D03*
Y258000D02*
D03*
Y288000D02*
D03*
Y318000D02*
D03*
Y348000D02*
D03*
Y378000D02*
D03*
D49*
X1957150Y505200D02*
D03*
X1931750D02*
D03*
X1906350D02*
D03*
X1880950D02*
D03*
X1855550D02*
D03*
X1830150D02*
D03*
X1804750D02*
D03*
X1779350D02*
D03*
X1753950D02*
D03*
X1728550D02*
D03*
X1703150D02*
D03*
X1677750D02*
D03*
X1652350D02*
D03*
X1626950D02*
D03*
X1601550D02*
D03*
X1957150Y530600D02*
D03*
X1931750D02*
D03*
X1906350D02*
D03*
X1880950D02*
D03*
X1855550D02*
D03*
X1830150D02*
D03*
X1804750D02*
D03*
X1779350D02*
D03*
X1753950D02*
D03*
X1728550D02*
D03*
X1703150D02*
D03*
X1677750D02*
D03*
X1652350D02*
D03*
X1626950D02*
D03*
X1601550D02*
D03*
X1957150Y556000D02*
D03*
X1931750D02*
D03*
X1906350D02*
D03*
X1880950D02*
D03*
X1855550D02*
D03*
X1830150D02*
D03*
X1804750D02*
D03*
X1779350D02*
D03*
X1753950D02*
D03*
X1728550D02*
D03*
X1703150D02*
D03*
X1677750D02*
D03*
X1652350D02*
D03*
X1626950D02*
D03*
X1601550D02*
D03*
X1957150Y581400D02*
D03*
X1931750D02*
D03*
X1906350D02*
D03*
X1880950D02*
D03*
X1855550D02*
D03*
X1830150D02*
D03*
X1804750D02*
D03*
X1779350D02*
D03*
X1753950D02*
D03*
X1728550D02*
D03*
X1703150D02*
D03*
X1677750D02*
D03*
X1652350D02*
D03*
X1626950D02*
D03*
X1601550D02*
D03*
X1957150Y606800D02*
D03*
X1931750D02*
D03*
X1906350D02*
D03*
X1880950D02*
D03*
X1855550D02*
D03*
X1830150D02*
D03*
X1804750D02*
D03*
X1779350D02*
D03*
X1753950D02*
D03*
X1728550D02*
D03*
X1703150D02*
D03*
X1677750D02*
D03*
X1652350D02*
D03*
X1626950D02*
D03*
X1601550D02*
D03*
X1957150Y632200D02*
D03*
X1931750D02*
D03*
X1906350D02*
D03*
X1880950D02*
D03*
X1855550D02*
D03*
X1830150D02*
D03*
X1804750D02*
D03*
X1779350D02*
D03*
X1753950D02*
D03*
X1728550D02*
D03*
X1703150D02*
D03*
X1677750D02*
D03*
X1652350D02*
D03*
X1626950D02*
D03*
X1601550D02*
D03*
X1957150Y657600D02*
D03*
X1931750D02*
D03*
X1906350D02*
D03*
X1880950D02*
D03*
X1855550D02*
D03*
X1830150D02*
D03*
X1804750D02*
D03*
X1779350D02*
D03*
X1753950D02*
D03*
X1728550D02*
D03*
X1703150D02*
D03*
X1677750D02*
D03*
X1652350D02*
D03*
X1626950D02*
D03*
X1601550D02*
D03*
X1957150Y683000D02*
D03*
X1931750D02*
D03*
X1906350D02*
D03*
X1880950D02*
D03*
X1855550D02*
D03*
X1830150D02*
D03*
X1804750D02*
D03*
X1779350D02*
D03*
X1753950D02*
D03*
X1728550D02*
D03*
X1703150D02*
D03*
X1677750D02*
D03*
X1652350D02*
D03*
X1626950D02*
D03*
X1601550D02*
D03*
X1957150Y708400D02*
D03*
X1931750D02*
D03*
X1906350D02*
D03*
X1880950D02*
D03*
X1855550D02*
D03*
X1830150D02*
D03*
X1804750D02*
D03*
X1779350D02*
D03*
X1753950D02*
D03*
X1728550D02*
D03*
X1703150D02*
D03*
X1677750D02*
D03*
X1652350D02*
D03*
X1626950D02*
D03*
X1601550D02*
D03*
X1957150Y733800D02*
D03*
X1931750D02*
D03*
X1906350D02*
D03*
X1880950D02*
D03*
X1855550D02*
D03*
X1830150D02*
D03*
X1804750D02*
D03*
X1779350D02*
D03*
X1753950D02*
D03*
X1728550D02*
D03*
X1703150D02*
D03*
X1677750D02*
D03*
X1652350D02*
D03*
X1626950D02*
D03*
X1601550D02*
D03*
D50*
X1830150Y759200D02*
D03*
X1804750D02*
D03*
X1611800Y911000D02*
D03*
X1586400D02*
D03*
X1561000D02*
D03*
X1535600D02*
D03*
X1510200D02*
D03*
X1957150Y759200D02*
D03*
X1931750D02*
D03*
X1906350D02*
D03*
X1880950D02*
D03*
D51*
X1779350D02*
D03*
X1484800Y911000D02*
D03*
X1855550Y759200D02*
D03*
D52*
X1772000Y110600D02*
D03*
Y210600D02*
D03*
X1809000Y85200D02*
D03*
Y110600D02*
D03*
Y185200D02*
D03*
Y210600D02*
D03*
X1581000Y444800D02*
D03*
Y419400D02*
D03*
X1982550Y708400D02*
D03*
Y733800D02*
D03*
Y759200D02*
D03*
Y581400D02*
D03*
Y606800D02*
D03*
Y632200D02*
D03*
Y657600D02*
D03*
D53*
X1772000Y136000D02*
D03*
Y236000D02*
D03*
X1809000Y136000D02*
D03*
Y236000D02*
D03*
X1581000Y394000D02*
D03*
X1982550Y683000D02*
D03*
Y556000D02*
D03*
D54*
X1258200Y754430D02*
D03*
Y779830D02*
D03*
Y805230D02*
D03*
D55*
Y830630D02*
D03*
Y856030D02*
D03*
Y881430D02*
D03*
X1135000Y701930D02*
D03*
D56*
Y933430D02*
D03*
D57*
X1989000Y931000D02*
D03*
X1969000Y856000D02*
D03*
D58*
X1607000Y316400D02*
D03*
X1556200D02*
D03*
X1530800D02*
D03*
X1505400D02*
D03*
X1480000D02*
D03*
X1454600D02*
D03*
X1429200D02*
D03*
X1403800D02*
D03*
X1962600Y799000D02*
D03*
X1937200D02*
D03*
X1911800D02*
D03*
X1886400D02*
D03*
X1861000D02*
D03*
X1835600D02*
D03*
X1810200D02*
D03*
X1784800D02*
D03*
X1734000D02*
D03*
X1708600D02*
D03*
X1683200D02*
D03*
X1657800D02*
D03*
X1632400D02*
D03*
X1607000D02*
D03*
X1581600D02*
D03*
X1556200D02*
D03*
X1363160D02*
D03*
X1515560D02*
D03*
X1490160D02*
D03*
X1464760D02*
D03*
X1286960D02*
D03*
X1312360D02*
D03*
X1337760D02*
D03*
X1388560D02*
D03*
X1413960D02*
D03*
X1439360D02*
D03*
X1378400Y316400D02*
D03*
X1632400D02*
D03*
X1657800D02*
D03*
X1683200D02*
D03*
X1708600D02*
D03*
X1734000D02*
D03*
X1759400D02*
D03*
X1784800D02*
D03*
X1835600D02*
D03*
X1861000D02*
D03*
X1886400D02*
D03*
X1911800D02*
D03*
X1937200D02*
D03*
X1962600D02*
D03*
X1988000D02*
D03*
X2013400D02*
D03*
X2038800Y799000D02*
D03*
X2064200D02*
D03*
X2038800Y773600D02*
D03*
X2064200D02*
D03*
X2038800Y748200D02*
D03*
X2064200D02*
D03*
X2038800Y722800D02*
D03*
X2064200D02*
D03*
X2038800Y697400D02*
D03*
X2064200D02*
D03*
X2038800Y672000D02*
D03*
X2064200D02*
D03*
X2038800Y646600D02*
D03*
X2064200D02*
D03*
X2038800Y621200D02*
D03*
X2064200D02*
D03*
X2038800Y595800D02*
D03*
X2064200D02*
D03*
X2038800Y570400D02*
D03*
X2064200D02*
D03*
X2038800Y545000D02*
D03*
X2064200D02*
D03*
X2038800Y519600D02*
D03*
X2064200D02*
D03*
X2038800Y494200D02*
D03*
X2064200D02*
D03*
X2038800Y468800D02*
D03*
X2064200D02*
D03*
X2038800Y443400D02*
D03*
X2064200D02*
D03*
X2038800Y418000D02*
D03*
X2064200D02*
D03*
X2038800Y392600D02*
D03*
X2064200D02*
D03*
X2038800Y367200D02*
D03*
X2064200D02*
D03*
D59*
X1733000Y430000D02*
D03*
X1703000D02*
D03*
D60*
X1299000Y726000D02*
D03*
X1451400D02*
D03*
X1930000Y135000D02*
D03*
D61*
X1476800Y853000D02*
D03*
X1324400Y726000D02*
D03*
X1451400Y853000D02*
D03*
X1349800Y726000D02*
D03*
X1426000Y853000D02*
D03*
X1375200Y726000D02*
D03*
X1400600Y853000D02*
D03*
Y726000D02*
D03*
X1375200Y853000D02*
D03*
X1426000Y726000D02*
D03*
X1349800Y853000D02*
D03*
X1324400D02*
D03*
X1476800Y726000D02*
D03*
X1299000Y853000D02*
D03*
X2006200Y211200D02*
D03*
X1955400Y135000D02*
D03*
X1980800Y211200D02*
D03*
Y135000D02*
D03*
X1955400Y211200D02*
D03*
X2006200Y135000D02*
D03*
X1930000Y211200D02*
D03*
D62*
X2050000Y880000D02*
D03*
D63*
Y930000D02*
D03*
M02*
